<svg width="800" height="533" viewBox="0 0 800 533" fill="none" xmlns="http://www.w3.org/2000/svg">
<g clip-path="url(#clip0_967_40)">
<path d="M228.283 276.221C225.296 284.181 223.686 291.621 221.773 300.463C248.221 300.463 272.482 300.463 297.783 300.463C297.783 307.53 297.783 313.389 297.783 320.012C262.442 320.012 227.741 320.012 191.272 320.012C191.272 306.096 191.272 292.338 191.272 279.023C173.467 274.804 157.395 270.995 138.96 266.626C126.511 278.991 111.605 291.749 100.028 305.891C89.1437 319.187 75.3327 324.247 53 320.098C55.0134 317.35 56.6475 314.313 59.2087 311.746C92.2585 278.619 125.659 245.669 158.398 212.387C164.68 206 171.291 203.368 182.42 203.519C220.435 204.033 258.472 203.716 297.65 203.716C297.65 210.156 297.65 216.032 297.65 223.438C273.306 223.438 249.136 223.438 224.228 223.438C224.228 235.751 224.228 246.591 224.228 257.383C248.715 253.597 273.488 249.767 300.536 245.585C303.032 241.432 306.361 234.903 310.75 228.759C334.856 195.012 389.665 179.065 440.335 190.865C487.821 201.924 520.205 237.805 512.996 271.372C504.816 309.469 462.767 336.804 410.567 337.96C356.431 339.158 310.028 313.579 301.183 276.047C298.758 265.756 292.663 263.321 280.813 265.397C263.617 268.41 246.698 272.228 228.283 276.221ZM476.125 297.908C476.125 297.908 476.525 296.959 478.189 295.649C497.112 273.991 498.773 252.3 477.851 228.952C438.72 191.92 366.926 193.001 330.949 232.442C319.037 247.544 316.134 263.346 323.881 281.799C348.31 319.064 396.582 332.675 447.668 315.381C452.547 312.826 457.426 310.271 464.255 306.877C467.771 303.99 471.288 301.103 476.125 297.908ZM157.469 251.885C167.741 254.712 178.012 257.54 188.748 260.495C188.748 246.545 188.748 235.253 188.748 223.961C186.989 223.359 185.23 222.756 183.471 222.154C174.424 231.448 165.377 240.742 157.469 251.885Z" fill="#09090A"/>
<path d="M680 277.226C680 292.115 680 305.685 680 319.229C662.352 323.51 650.56 319.866 639.422 310.076C614.405 288.086 587.907 266.97 559.494 243.41C559.494 270.351 559.494 294.677 559.494 319.933C547.873 319.933 537.855 319.933 527 319.933C527 281.152 527 242.637 527 204.258C543.575 200.696 554.475 204.924 564.983 214.094C590.55 236.406 617.615 257.826 646.268 281.409C646.268 254.477 646.268 229.733 646.268 204.12C657.724 204.12 667.735 204.12 680 204.12C680 227.837 680 251.872 680 277.226Z" fill="#060606"/>
<path d="M334 231.316C367.594 192.804 439.056 191.712 478 231.15C476.92 238.763 480.434 246.457 464.874 246.105C434.664 248.376 406.007 249.996 377.682 253.167C348.643 256.418 335.248 250.363 334 231.316ZM395.484 246.965C419.72 243.871 443.956 240.777 469.399 237.529C468.099 235.734 466.309 232.068 463.19 229.144C435.357 203.055 372.54 204.816 347.306 232.275C339.324 240.961 341.757 246.59 355.98 247.921C367.92 249.038 380.274 247.845 395.484 246.965Z" fill="#F0E9C5"/>
<path d="M332.522 232C334.896 250.065 348.39 256.014 377.642 252.82C406.175 249.704 435.043 248.112 466.262 246.538C472.61 249.627 476.459 252.029 479 254.176C461.436 253.062 444.321 249.498 429.106 251.908C397.853 256.859 367.465 263.198 335.427 253.729C334.027 254.692 332.627 255.656 331.226 256.619C334.7 261.814 338.174 267.008 342.363 272.797C344.479 273.689 345.881 273.986 348.431 274.118C351.86 274.311 354.139 274.669 357.207 275.565C359.411 276.329 360.828 276.555 362.407 276.522C362.57 276.263 363.362 276.355 364.098 277.162C369.433 277.549 374.033 277.128 379.473 276.458C380.314 276.208 382.138 276.131 382.138 276.131C382.138 276.131 383.737 276.756 385.056 276.829C388.666 276.193 390.956 275.484 394.165 274.514C396.388 274.25 397.694 274.246 400.268 274.304C403.676 273.621 405.814 272.876 408.841 271.853C411.004 271.58 412.278 271.584 415.094 271.685C421.13 270.841 425.626 269.901 430.151 269.064C430.18 269.168 429.885 269.128 431.609 269.218C443.934 269.228 454.536 269.149 465.633 268.922C466.128 268.774 467.059 269.154 467.696 269.817C470.426 270.998 472.518 271.518 474.05 272.86C472.372 275.324 471.256 276.966 469.373 278.514C468.607 278.421 467.41 277.719 466.425 276.881C453.62 276.626 441.8 277.209 429.606 277.911C429.232 278.03 428.69 277.594 427.222 277.504C422.342 278.281 418.931 279.149 415.523 279.923C415.526 279.829 415.746 279.936 414.344 279.873C408.827 280.79 404.711 281.77 400.187 282.947C399.779 283.142 398.97 282.743 397.094 282.655C380.405 282.632 365.592 282.696 350.321 282.929C349.861 283.097 348.992 282.701 348.396 282.017C345.707 280.822 343.614 280.311 340.069 279.801C333.78 279.805 328.943 279.807 324.106 279.809C316.55 263.32 319.461 247.637 332.522 232Z" fill="#DAEEF0"/>
<path d="M324 281.718C328.709 280.816 333.524 280.814 339.828 281.434C341.317 282.057 341.515 283.3 341.239 284.232C342.59 287.839 343.613 290.809 345.937 293.144C368.874 316.189 405.152 321.435 447 308.987C446.234 312.051 445.668 314.084 445.102 316.117C396.669 332.48 348.488 319.14 324 281.718Z" fill="#D3EBF2"/>
<path d="M470.11 278.321C471.197 276.69 472.284 275.059 475.018 272.511C478.188 270.581 479.71 269.568 481.335 268.734C481.437 268.913 480.915 269.005 482.04 268.452C482.321 263.233 481.478 258.567 480.559 254.065C480.482 254.229 480.011 254.3 480.011 254.3C476.263 251.913 472.515 249.527 468 246.487C480.829 246.149 477.383 238.637 478.726 232C498.875 252.24 497.253 273.628 476.638 295C473.109 293.879 471.721 292.742 470.457 291.117C470.58 290.629 471.456 289.861 472.186 289.461C473.324 288.245 473.732 287.429 474.194 286.098C474.248 285.583 475.018 284.712 476.03 284.581C478.012 283.569 478.982 282.689 479.951 281.808C478.107 281.082 476.264 280.356 473.629 279.547C471.761 279.291 470.851 278.91 470.11 278.321Z" fill="#E1EBEE"/>
<path d="M447.309 317C446.605 315.148 447.164 312.984 448.377 309.267C449.848 307.204 450.784 306.942 453.151 307.009C456.207 307.094 457.953 307.095 460.498 307.527C461.865 308.203 462.432 308.448 463 308.693C458.19 311.358 453.38 314.023 447.309 317Z" fill="#E1EBEE"/>
<path d="M475 299C471.451 301.845 467.902 304.689 463.369 307.947C461.803 308.129 461.222 307.897 459.841 306.388C459.02 303.948 458.998 302.784 459 301.656C459.024 301.691 458.909 301.644 460.288 301.574C466.111 300.669 470.556 299.835 475 299Z" fill="#E1EBEE"/>
<path d="M476.366 297.945C471.086 298.964 466.495 299.827 461 300C463.46 296.874 466.823 294.437 470.187 292C471.669 293.174 473.151 294.347 476.053 296.172C477.472 296.822 477.054 297.788 476.366 297.945Z" fill="#CEF4FC"/>
<path d="M393.735 246.931C379.894 247.459 367.404 248.659 355.332 247.536C340.953 246.198 338.493 240.538 346.563 231.805C372.074 204.198 435.583 202.427 463.722 228.657C466.876 231.597 468.686 235.283 470 237.087C444.277 240.353 419.774 243.464 393.735 246.931Z" fill="#FAD215"/>
<path d="M470.332 291.643C466.982 294.665 463.759 297.169 460.037 300.455C459.538 301.238 459.652 301.288 458.593 301.525C455.579 303.374 453.625 304.986 451.67 306.597C450.598 306.613 449.649 306.876 448.359 307.845C405.805 322.691 369.49 317.09 346.53 292.492C344.204 289.999 343.179 286.83 343 283.175C346.053 282.378 347.658 282.38 349.262 282.383C349.262 282.383 350.128 282.801 351.919 283.381C368.827 283.45 383.945 282.938 399.062 282.427C399.062 282.427 399.868 282.848 401.62 282.644C407.507 281.449 411.642 280.459 415.778 279.469C415.778 279.469 415.559 279.355 416.954 279.518C421.792 278.787 425.234 277.893 428.676 277C428.676 277 429.216 277.459 431.297 277.274C444.672 277.103 455.965 277.117 467.258 277.131C467.258 277.131 468.45 277.871 469.214 277.969C470.736 278.693 471.667 279.097 473.711 280.264C474.769 282.448 474.884 283.648 475 284.848C475 284.848 474.212 285.772 473.381 286.732C472.151 288.565 471.753 289.438 471.355 290.311C471.355 290.311 470.459 291.125 470.332 291.643Z" fill="#10AADC"/>
<path d="M383.475 276L381.878 275.391C381.878 275.391 380.054 275.467 377.704 275.562C371.274 275.642 367.194 275.626 363.114 275.61C363.114 275.61 362.323 275.52 361.447 275.158C359.106 274.636 357.641 274.476 356.175 274.317C353.897 273.968 351.619 273.618 347.498 272.816C344.241 272.097 342.828 271.831 341.415 271.566C337.943 266.506 334.472 261.446 331 256.387C332.399 255.448 333.799 254.51 335.198 253.572C367.214 262.794 397.582 256.62 428.814 251.798C444.018 249.451 461.123 252.922 478.674 254.007C479.982 254.256 480.465 254.186 480.541 255.082C480.715 260.209 480.813 264.44 480.91 268.671C480.91 268.671 481.445 268.581 479.903 268.546C474.488 268.54 470.615 268.568 466.741 268.596C466.741 268.596 465.811 268.226 463.983 267.763C451.301 267.724 440.447 268.147 429.593 268.571C429.593 268.571 429.887 268.609 428.416 268.435C422.387 269.162 417.829 270.065 413.271 270.967C411.998 270.963 410.724 270.958 407.342 271.181C403.065 272.123 400.896 272.837 398.727 273.552C397.423 273.555 396.118 273.559 392.603 273.754C388.086 274.629 385.781 275.315 383.475 276Z" fill="#19A9D9"/>
<path d="M397 282.004C383.698 282.649 368.518 283.196 352 282.932C365.482 282.05 380.302 281.978 397 282.004Z" fill="#CEF4FC"/>
<path d="M466 276.067C455.572 276.967 444.15 276.952 431 277C441.183 276.426 453.095 275.789 466 276.067Z" fill="#CEF4FC"/>
<path d="M431 269.999C440.083 269.357 450.878 268.824 463 269.055C453.788 269.915 443.251 270.012 431 269.999Z" fill="#CEF4FC"/>
<path d="M415 272C417.89 270.904 422.255 269.912 428 269C425.079 270.088 420.777 271.096 415 272Z" fill="#CEF4FC"/>
<path d="M467 269.889C470.387 269.201 474.442 269.173 480 269C479.869 269.871 478.234 270.885 475.415 272C472.044 271.583 469.855 271.066 467 269.889Z" fill="#CEF4FC"/>
<path d="M364 276.824C367.341 275.893 371.416 275.912 377 276.11C373.917 276.784 369.326 277.279 364 276.824Z" fill="#CEF4FC"/>
<path d="M414 281C411.34 281.697 407.323 282.349 402 283C404.677 282.318 408.66 281.637 414 281Z" fill="#CEF4FC"/>
<path d="M427 277C425.072 278.458 421.717 279.776 417 281C418.949 279.558 422.262 278.209 427 277Z" fill="#CEF4FC"/>
<path d="M348 281.728C347.109 282.037 345.695 282.036 343.247 281.951C342.213 281.867 342.039 281.295 342 281.008C343.8 280.953 345.638 281.185 348 281.728Z" fill="#CEF4FC"/>
<path d="M385 276C386.002 275.267 388.344 274.603 392 274C390.989 274.73 388.664 275.4 385 276Z" fill="#CEF4FC"/>
<path d="M400 274C400.976 273.641 403.326 273.311 407 273C406.007 273.356 403.691 273.692 400 274Z" fill="#CEF4FC"/>
<path d="M357 275.196C357.627 274.812 358.984 274.981 361 275.796C360.35 276.212 359.039 275.98 357 275.196Z" fill="#CEF4FC"/>
<path d="M342 273.116C342.828 272.828 344.502 273.072 347 273.881C346.165 274.18 344.505 273.914 342 273.116Z" fill="#CEF4FC"/>
<path d="M481.962 269C481.128 265.09 481.063 260.606 481 255C481.578 258.728 482.155 263.576 481.962 269Z" fill="#DAEEF0"/>
<path d="M475.645 285C474.395 284.029 474.269 282.93 474 281.012C475.904 280.898 477.952 281.602 480 282.307C478.923 283.163 477.846 284.018 475.645 285Z" fill="#CEF4FC"/>
<path d="M472.083 291C471.846 290.485 472.116 289.48 472.915 288C473.159 288.52 472.875 289.515 472.083 291Z" fill="#CEF4FC"/>
<path d="M453 306.96C453.566 305.015 455.328 303.165 458.024 301C458.978 302.103 458.997 303.521 459 306C457.388 307.059 455.792 307.057 453 306.96Z" fill="#CEF4FC"/>
</g>
<defs>
<clipPath id="clip0_967_40">
<rect width="800" height="533" fill="white"/>
</clipPath>
</defs>
</svg>
