<svg width="800" height="533" viewBox="0 0 800 533" fill="none" xmlns="http://www.w3.org/2000/svg">
<g clip-path="url(#clip0_967_40)">
<path d="M228.283 288.129C225.296 297.775 223.686 306.792 221.773 317.509C248.221 317.509 272.482 317.509 297.783 317.509C297.783 326.072 297.783 333.173 297.783 341.2C262.442 341.2 227.741 341.2 191.272 341.2C191.272 324.335 191.272 307.662 191.272 291.525C173.467 286.411 157.395 281.795 138.96 276.5C126.511 291.486 111.605 306.947 100.028 324.086C89.1437 340.2 75.3327 346.333 53 341.304C55.0134 337.974 56.6475 334.293 59.2087 331.182C92.2585 291.035 125.659 251.102 158.398 210.767C164.68 203.027 171.291 199.836 182.42 200.019C220.435 200.643 258.472 200.258 297.65 200.258C297.65 208.063 297.65 215.185 297.65 224.16C273.306 224.16 249.136 224.16 224.228 224.16C224.228 239.082 224.228 252.22 224.228 265.299C248.715 260.71 273.488 256.068 300.536 251C303.032 245.967 306.361 238.055 310.75 230.609C334.856 189.71 389.665 170.384 440.335 184.684C487.821 198.086 520.205 241.571 512.996 282.253C504.816 328.423 462.767 361.55 410.567 362.951C356.431 364.404 310.028 333.404 301.183 287.918C298.758 275.447 292.663 272.495 280.813 275.011C263.617 278.663 246.698 283.289 228.283 288.129ZM476.125 314.411C476.125 314.411 476.525 313.261 478.189 311.675C497.112 285.426 498.773 259.138 477.851 230.843C438.72 185.962 366.926 187.273 330.949 235.072C319.037 253.374 316.134 272.526 323.881 294.888C348.31 340.051 396.582 356.546 447.668 335.588C452.547 332.491 457.426 329.395 464.255 325.282C467.771 321.782 471.288 318.283 476.125 314.411ZM157.469 258.635C167.741 262.062 178.012 265.489 188.748 269.071C188.748 252.164 188.748 238.479 188.748 224.794C186.989 224.064 185.23 223.334 183.471 222.603C174.424 233.867 165.377 245.132 157.469 258.635Z" fill="#09090A"/>
<path d="M680 289.581C680 307.751 680 324.31 680 340.839C662.352 346.063 650.56 341.616 639.422 329.669C614.405 302.833 587.907 277.065 559.494 248.314C559.494 281.191 559.494 310.877 559.494 341.697C547.873 341.697 537.855 341.697 527 341.697C527 294.372 527 247.371 527 200.535C543.575 196.188 554.475 201.347 564.983 212.539C590.55 239.766 617.615 265.906 646.268 294.686C646.268 261.819 646.268 231.624 646.268 200.366C657.724 200.366 667.735 200.366 680 200.366C680 229.309 680 258.641 680 289.581Z" fill="#060606"/>
<path d="M334 233.518C367.594 186.859 439.056 185.536 478 233.316C476.92 242.54 480.434 251.862 464.874 251.435C434.664 254.186 406.007 256.149 377.682 259.991C348.643 263.929 335.248 256.593 334 233.518ZM395.484 252.477C419.72 248.729 443.956 244.98 469.399 241.044C468.099 238.87 466.309 234.429 463.19 230.886C435.357 199.278 372.54 201.412 347.306 234.68C339.324 245.202 341.757 252.023 355.98 253.635C367.92 254.989 380.274 253.542 395.484 252.477Z" fill="#F0E9C5"/>
<path d="M332.522 234C334.896 255.961 348.39 263.194 377.642 259.311C406.175 255.523 435.043 253.587 466.262 251.673C472.61 255.429 476.459 258.349 479 260.959C461.436 259.604 444.321 255.272 429.106 258.202C397.853 264.22 367.465 271.927 335.427 260.415C334.027 261.587 332.627 262.758 331.226 263.929C334.7 270.244 338.174 276.559 342.363 283.597C344.479 284.681 345.881 285.042 348.431 285.202C351.86 285.437 354.139 285.872 357.207 286.962C359.411 287.89 360.828 288.164 362.407 288.125C362.57 287.81 363.362 287.922 364.098 288.903C369.433 289.373 374.033 288.862 379.473 288.047C380.314 287.743 382.138 287.649 382.138 287.649C382.138 287.649 383.737 288.409 385.056 288.498C388.666 287.725 390.956 286.863 394.165 285.684C396.388 285.363 397.694 285.358 400.268 285.429C403.676 284.598 405.814 283.692 408.841 282.448C411.004 282.117 412.278 282.122 415.094 282.244C421.13 281.218 425.626 280.075 430.151 279.058C430.18 279.185 429.885 279.136 431.609 279.245C443.934 279.258 454.536 279.161 465.633 278.885C466.128 278.706 467.059 279.168 467.696 279.973C470.426 281.41 472.518 282.041 474.05 283.673C472.372 286.668 471.256 288.664 469.373 290.546C468.607 290.433 467.41 289.58 466.425 288.561C453.62 288.251 441.8 288.96 429.606 289.814C429.232 289.958 428.69 289.429 427.222 289.319C422.342 290.264 418.931 291.319 415.523 292.259C415.526 292.145 415.746 292.275 414.344 292.198C408.827 293.313 404.711 294.505 400.187 295.935C399.779 296.173 398.97 295.688 397.094 295.581C380.405 295.553 365.592 295.631 350.321 295.914C349.861 296.118 348.992 295.636 348.396 294.806C345.707 293.353 343.614 292.731 340.069 292.111C333.78 292.116 328.943 292.118 324.106 292.121C316.55 272.075 319.461 253.01 332.522 234Z" fill="#DAEEF0"/>
<path d="M324 294.872C328.709 293.776 333.524 293.774 339.828 294.527C341.317 295.284 341.515 296.793 341.239 297.925C342.59 302.305 343.613 305.911 345.937 308.746C368.874 336.729 405.152 343.1 447 327.984C446.234 331.705 445.668 334.174 445.102 336.643C396.669 356.511 348.488 340.313 324 294.872Z" fill="#D3EBF2"/>
<path d="M470.11 290.615C471.197 288.621 472.284 286.627 475.018 283.513C478.188 281.155 479.71 279.917 481.335 278.897C481.437 279.116 480.915 279.229 482.04 278.552C482.321 272.173 481.478 266.47 480.559 260.968C480.482 261.169 480.011 261.256 480.011 261.256C476.263 258.339 472.515 255.421 468 251.706C480.829 251.293 477.383 242.112 478.726 234C498.875 258.737 497.253 284.879 476.638 311C473.109 309.63 471.721 308.24 470.457 306.254C470.58 305.657 471.456 304.72 472.186 304.23C473.324 302.743 473.732 301.746 474.194 300.12C474.248 299.49 475.018 298.425 476.03 298.266C478.012 297.029 478.982 295.953 479.951 294.876C478.107 293.989 476.264 293.102 473.629 292.113C471.761 291.8 470.851 291.335 470.11 290.615Z" fill="#E1EBEE"/>
<path d="M447.309 337C446.605 334.963 447.164 332.583 448.377 328.493C449.848 326.225 450.784 325.936 453.151 326.01C456.207 326.103 457.953 326.105 460.498 326.58C461.865 327.323 462.432 327.593 463 327.863C458.19 330.794 453.38 333.725 447.309 337Z" fill="#E1EBEE"/>
<path d="M475 316C471.451 319.477 467.902 322.954 463.369 326.935C461.803 327.157 461.222 326.874 459.841 325.03C459.02 322.047 458.998 320.625 459 319.246C459.024 319.289 458.909 319.232 460.288 319.146C466.111 318.04 470.556 317.02 475 316Z" fill="#E1EBEE"/>
<path d="M476.366 314.688C471.086 315.835 466.495 316.805 461 317C463.46 313.483 466.823 310.741 470.187 308C471.669 309.32 473.151 310.641 476.053 312.693C477.472 313.425 477.054 314.512 476.366 314.688Z" fill="#CEF4FC"/>
<path d="M393.735 251.734C379.894 252.359 367.404 253.78 355.332 252.45C340.953 250.866 338.493 244.163 346.563 233.822C372.074 201.129 435.583 199.032 463.722 230.094C466.876 233.575 468.686 237.94 470 240.077C444.277 243.944 419.774 247.628 393.735 251.734Z" fill="#FAD215"/>
<path d="M470.332 307.272C466.982 310.836 463.759 313.789 460.037 317.665C459.538 318.589 459.652 318.647 458.593 318.927C455.579 321.108 453.625 323.009 451.67 324.91C450.598 324.929 449.649 325.239 448.359 326.381C405.805 343.892 369.49 337.286 346.53 308.273C344.204 305.333 343.179 301.594 343 297.283C346.053 296.343 347.658 296.346 349.262 296.349C349.262 296.349 350.128 296.842 351.919 297.526C368.827 297.607 383.945 297.004 399.062 296.401C399.062 296.401 399.868 296.898 401.62 296.657C407.507 295.248 411.642 294.08 415.778 292.912C415.778 292.912 415.559 292.778 416.954 292.97C421.792 292.107 425.234 291.054 428.676 290C428.676 290 429.216 290.541 431.297 290.323C444.672 290.121 455.965 290.138 467.258 290.155C467.258 290.155 468.45 291.027 469.214 291.143C470.736 291.996 471.667 292.473 473.711 293.85C474.769 296.425 474.884 297.841 475 299.256C475 299.256 474.212 300.347 473.381 301.479C472.151 303.641 471.753 304.671 471.355 305.701C471.355 305.701 470.459 306.66 470.332 307.272Z" fill="#10AADC"/>
<path d="M383.475 287L381.878 286.294C381.878 286.294 380.054 286.381 377.704 286.492C371.274 286.585 367.194 286.566 363.114 286.548C363.114 286.548 362.323 286.444 361.447 286.023C359.106 285.417 357.641 285.232 356.175 285.047C353.897 284.642 351.619 284.237 347.498 283.307C344.241 282.473 342.828 282.164 341.415 281.856C337.943 275.987 334.472 270.118 331 264.249C332.399 263.16 333.799 262.072 335.198 260.983C367.214 271.681 397.582 264.519 428.814 258.926C444.018 256.203 461.123 260.229 478.674 261.488C479.982 261.777 480.465 261.696 480.541 262.735C480.715 268.683 480.813 273.591 480.91 278.499C480.91 278.499 481.445 278.394 479.903 278.354C474.488 278.346 470.615 278.379 466.741 278.411C466.741 278.411 465.811 277.982 463.983 277.446C451.301 277.4 440.447 277.891 429.593 278.382C429.593 278.382 429.887 278.427 428.416 278.224C422.387 279.068 417.829 280.115 413.271 281.162C411.998 281.157 410.724 281.152 407.342 281.41C403.065 282.502 400.896 283.331 398.727 284.16C397.423 284.164 396.118 284.169 392.603 284.394C388.086 285.41 385.781 286.205 383.475 287Z" fill="#19A9D9"/>
<path d="M397 295.004C383.698 295.649 368.518 296.196 352 295.932C365.482 295.05 380.302 294.978 397 295.004Z" fill="#CEF4FC"/>
<path d="M466 287.202C455.572 289.902 444.15 289.857 431 290C441.183 288.278 453.095 286.368 466 287.202Z" fill="#CEF4FC"/>
<path d="M431 279.999C440.083 279.357 450.878 278.824 463 279.055C453.788 279.915 443.251 280.012 431 279.999Z" fill="#CEF4FC"/>
<path d="M415 283C417.89 281.539 422.255 280.216 428 279C425.079 280.451 420.777 281.794 415 283Z" fill="#CEF4FC"/>
<path d="M467 280.186C470.387 279.268 474.442 279.23 480 279C479.869 280.161 478.234 281.514 475.415 283C472.044 282.444 469.855 281.754 467 280.186Z" fill="#CEF4FC"/>
<path d="M364 289.472C367.341 286.678 371.416 286.736 377 287.33C373.917 289.351 369.326 290.838 364 289.472Z" fill="#CEF4FC"/>
<path d="M414 294C411.34 294.697 407.323 295.349 402 296C404.677 295.318 408.66 294.637 414 294Z" fill="#CEF4FC"/>
<path d="M427 290C425.072 291.458 421.717 292.776 417 294C418.949 292.558 422.262 291.209 427 290Z" fill="#CEF4FC"/>
<path d="M348 294.728C347.109 295.037 345.695 295.036 343.247 294.951C342.213 294.867 342.039 294.295 342 294.008C343.8 293.953 345.638 294.185 348 294.728Z" fill="#CEF4FC"/>
<path d="M385 287C386.002 286.267 388.344 285.603 392 285C390.989 285.73 388.664 286.4 385 287Z" fill="#CEF4FC"/>
<path d="M400 285C400.976 284.641 403.326 284.311 407 284C406.007 284.356 403.691 284.692 400 285Z" fill="#CEF4FC"/>
<path d="M357 286.196C357.627 285.812 358.984 285.981 361 286.796C360.35 287.212 359.039 286.98 357 286.196Z" fill="#CEF4FC"/>
<path d="M342 284.116C342.828 283.828 344.502 284.072 347 284.881C346.165 285.18 344.505 284.914 342 284.116Z" fill="#CEF4FC"/>
<path d="M481.962 279C481.128 274.253 481.063 268.807 481 262C481.578 266.527 482.155 272.414 481.962 279Z" fill="#DAEEF0"/>
<path d="M475.645 299C474.395 297.786 474.269 296.413 474 294.015C475.904 293.872 477.952 294.753 480 295.634C478.923 296.703 477.846 297.772 475.645 299Z" fill="#CEF4FC"/>
<path d="M472.083 306C471.846 305.313 472.116 303.974 472.915 302C473.159 302.693 472.875 304.021 472.083 306Z" fill="#CEF4FC"/>
<path d="M453 325.946C453.566 323.353 455.328 320.886 458.024 318C458.978 319.47 458.997 321.361 459 324.666C457.388 326.079 455.792 326.076 453 325.946Z" fill="#CEF4FC"/>
</g>
<defs>
<clipPath id="clip0_967_40">
<rect width="800" height="533" fill="white"/>
</clipPath>
</defs>
</svg>
