<svg width="784" height="533" viewBox="0 0 784 533" fill="none" xmlns="http://www.w3.org/2000/svg">
<path d="M514.355 165.804C511.48 180.401 512.526 182.706 518.275 175.023C521.15 171.182 525.854 168.109 528.728 168.109C533.432 168.109 533.694 170.158 533.694 198.839C533.694 223.935 532.91 230.081 529.774 231.106C520.888 234.691 526.899 237.252 543.624 236.996C560.35 236.996 560.872 236.739 555.384 232.898C549.635 229.057 549.374 227.264 549.374 198.583C549.374 181.938 550.419 167.853 551.987 166.829C554.6 165.292 565.054 174.255 565.054 178.352C565.054 179.633 566.36 180.913 567.667 180.913C569.235 180.913 570.28 175.792 570.28 169.389C570.28 158.634 569.758 157.866 565.315 160.427C558.782 163.756 524.024 163.756 521.934 160.427C519.059 155.817 516.184 157.866 514.355 165.804Z" fill="#0E4075"/>
<path d="M59.6345 163.756C54.9305 167.085 54.9305 167.341 60.4185 168.878C65.6451 170.158 65.9065 171.695 65.9065 197.047C65.9065 226.24 64.8611 232.13 59.1118 232.13C57.0211 232.13 55.4531 233.155 55.4531 234.691C55.4531 236.228 65.1225 237.252 78.9731 237.252C100.664 237.252 103.277 236.74 109.026 230.85C117.912 222.399 117.912 208.314 109.026 200.376C102.754 194.742 102.754 194.486 107.72 190.389C113.73 185.267 114.514 173.743 109.288 166.829C104.322 160.171 67.4745 157.866 59.6345 163.756ZM94.1305 168.622C99.3571 173.743 97.7891 185.267 91.5171 189.62C82.6318 195.766 81.5865 194.742 81.5865 179.633C81.5865 167.853 82.3705 165.549 86.2905 165.549C88.9038 165.549 92.3011 166.829 94.1305 168.622ZM95.6985 204.473C103.8 215.741 98.5731 233.667 87.8585 231.618C83.6771 230.85 82.8931 228.289 82.1091 214.717C81.3251 200.376 81.8478 198.839 86.5518 198.839C89.4265 198.839 93.6078 201.4 95.6985 204.473Z" fill="#0E4075"/>
<path d="M141.955 167.085C112.686 191.157 126.275 238.02 162.6 238.02C176.19 238.02 185.336 231.618 191.608 218.558C204.152 191.413 190.302 163.5 163.123 160.939C152.147 159.915 149.534 160.939 141.955 167.085ZM173.838 176.56C182.723 194.23 179.064 225.984 167.304 233.154C151.102 242.886 136.206 196.022 148.227 173.231C155.022 160.171 166.259 161.707 173.838 176.56Z" fill="#0E4075"/>
<path d="M305.288 195.766C298.493 215.741 291.176 232.13 288.562 233.923C284.904 236.484 286.472 236.996 297.97 236.996C305.288 237.252 311.56 235.972 311.56 234.691C311.56 233.155 309.992 232.13 307.901 232.13C302.152 232.13 300.584 227.777 302.413 219.326C303.981 212.412 305.288 211.644 314.173 211.644C323.058 211.644 324.365 212.668 326.978 219.582C330.637 230.338 330.637 232.13 325.933 232.13C323.842 232.13 322.013 233.155 322.013 234.691C322.013 236.228 329.33 237.252 339 237.252C348.669 237.252 355.986 236.228 355.986 234.691C355.986 233.155 354.418 232.13 352.328 232.13C349.976 232.13 344.226 219.07 336.125 196.279C329.33 176.304 322.274 160.427 320.445 160.427C318.616 160.427 311.821 176.048 305.288 195.766ZM322.013 206.01C322.013 206.522 318.877 206.522 314.957 206.01C307.117 205.241 306.594 202.168 312.082 188.852C314.696 182.194 314.696 182.45 318.354 193.718C320.184 200.12 322.013 205.498 322.013 206.01Z" fill="#0E4075"/>
<path d="M210.423 165.805C214.343 168.109 214.866 172.463 214.866 199.095C214.866 223.936 214.082 230.082 210.946 231.106C202.06 234.435 208.071 237.252 224.012 237.252C239.954 237.252 245.964 234.435 237.079 231.106C234.204 230.082 233.159 225.728 233.159 214.204V198.839H244.919H256.679V214.204C256.679 225.728 255.634 230.082 252.759 231.106C244.135 234.435 249.623 237.252 264.519 237.252C279.415 237.252 284.903 234.435 276.279 231.106C273.143 230.082 272.359 224.192 272.359 200.376C272.359 172.975 272.62 170.67 278.108 167.085C283.596 163.244 283.074 162.988 266.087 162.988C248.839 162.988 248.316 163.244 252.236 167.597C254.85 170.414 256.679 176.816 256.679 182.962V193.718H244.919H233.159V181.938C233.159 173.487 234.466 168.878 237.863 166.573C241.783 163.5 239.692 163.244 224.012 163.244C210.423 163.244 206.764 163.756 210.423 165.805Z" fill="#0E4075"/>
<path d="M364.611 165.549C368.531 168.109 369.053 172.463 369.053 197.559C369.053 224.448 368.531 227.265 363.304 232.13L357.555 237.252H369.837C376.632 237.252 382.12 235.972 382.12 234.691C382.12 233.155 380.552 232.13 378.461 232.13C372.712 232.13 371.667 225.984 373.496 203.449L375.064 182.194L383.949 207.802C388.653 221.631 393.619 234.179 394.925 235.459C396.232 236.74 400.936 226.753 406.424 211.131C414.003 189.876 415.832 186.547 415.832 193.718C416.093 198.583 416.877 208.827 417.923 216.253C419.229 228.801 418.968 230.082 413.741 231.362C402.765 234.179 408.515 237.252 425.24 237.252C434.909 237.252 442.227 236.228 442.227 234.691C442.227 233.155 440.659 232.13 438.568 232.13C435.955 232.13 434.648 224.704 433.08 200.888C431.512 172.719 431.773 169.39 435.955 166.317C440.136 163.5 439.091 162.988 428.899 162.988H417.139L409.821 185.011C405.901 197.047 402.243 206.522 401.72 206.01C401.197 205.498 397.277 196.022 393.096 184.755L385.517 164.268L372.712 163.5C362.781 162.988 360.952 163.5 364.611 165.549Z" fill="#0E4075"/>
<path d="M454.77 167.085C459.997 170.67 460.52 172.975 460.52 197.559C460.52 226.24 459.213 232.13 453.725 232.13C451.634 232.13 450.066 233.155 450.066 234.691C450.066 236.228 460.781 237.252 477.245 237.252H504.424L505.469 228.033C506.776 217.021 504.162 214.717 500.242 223.167C497.106 229.826 486.914 233.667 480.12 231.106C476.722 230.082 476.2 226.24 476.722 214.973C477.506 202.168 478.29 200.12 482.733 200.12C485.608 200.12 489.005 202.681 490.573 205.754C494.754 215.485 497.106 212.412 496.845 196.791C496.845 182.706 496.584 182.45 492.664 187.828C490.312 191.157 485.869 193.718 482.472 193.718C476.722 193.718 476.2 192.693 476.2 180.914C476.2 168.365 476.461 168.109 484.04 168.109C489.005 168.109 492.925 169.902 495.016 173.231C499.72 180.401 502.333 179.633 502.333 170.67V162.988H475.677C450.589 162.988 449.282 163.244 454.77 167.085Z" fill="#0E4075"/>
<path d="M622.285 212.156L584.392 256.458L314.696 257.227C77.4053 257.739 45 258.251 45 261.58C45 264.909 77.144 265.421 316.264 265.421H587.267L623.853 222.911C674.291 164.012 671.155 168.11 665.144 168.11C662.008 168.11 646.589 183.987 622.285 212.156Z" fill="#D80808"/>
<path d="M642.147 219.326L598.504 270.543H321.752C77.4053 270.543 45 271.055 45 274.384C45 277.713 77.6667 278.225 324.104 278.225L602.947 277.969L643.453 230.337C701.469 162.475 697.027 168.109 691.016 168.109C687.357 168.109 671.677 184.498 642.147 219.326Z" fill="#D80808"/>
<path d="M660.963 225.728L611.832 283.347H328.285C78.1893 283.347 45 283.859 45 287.188C45 290.517 78.4507 291.029 329.331 291.029H613.661L622.808 281.298C633.784 270.03 714.797 176.048 717.672 171.182C718.979 169.133 717.933 168.109 714.797 168.109C711.923 168.109 691.277 190.388 660.963 225.728Z" fill="#D80808"/>
<path d="M676.381 232.13L621.763 296.151H333.251C78.712 296.151 45 296.663 45 299.992C45 303.321 78.9733 303.833 334.819 303.833H624.899L679.256 240.325C747.987 160.171 741.976 168.109 735.965 168.109C732.829 168.109 711.661 190.645 676.381 232.13Z" fill="#D80808"/>
<path d="M674.29 255.689C675.596 256.97 678.471 257.738 680.3 257.226C682.391 256.458 681.084 255.433 677.687 254.409C673.244 253.385 672.199 253.641 674.29 255.689Z" fill="#0E4075"/>
<path d="M689.71 258.251C695.198 264.141 698.072 264.141 696.504 257.995C695.72 255.178 693.107 253.129 690.232 253.385C685.79 253.641 685.79 254.153 689.71 258.251Z" fill="#0E4075"/>
<path d="M698.334 253.641C698.334 255.946 706.174 257.226 707.481 255.178C708.526 253.641 706.697 252.617 703.822 252.617C700.686 252.617 698.334 253.129 698.334 253.641Z" fill="#0E4075"/>
<path d="M685.528 278.482C682.131 285.396 677.165 292.566 674.552 294.359C668.541 297.944 668.019 304.602 673.768 309.212C676.381 311.26 677.427 315.102 676.904 319.711C676.12 323.552 676.643 326.881 677.949 326.881C681.347 326.881 685.005 315.614 682.392 312.797C678.995 309.468 679.517 305.883 683.437 306.907C685.005 307.675 686.573 309.724 686.573 311.773C686.573 313.821 688.925 315.614 692.061 316.126C696.765 316.894 697.288 318.431 696.765 331.491C696.243 342.759 696.504 344.295 698.072 338.405C699.901 332.515 700.424 332.003 700.947 335.844C701.208 338.661 701.469 341.99 701.208 343.015C700.685 345.832 716.888 344.551 721.331 341.222C724.205 339.43 724.205 338.405 721.331 336.869C718.717 335.076 718.979 334.564 722.637 334.564C728.125 334.564 728.387 332.771 723.16 327.906C721.069 325.601 719.24 325.089 719.24 326.369C719.24 327.65 716.888 329.442 714.013 330.211C710.355 331.235 709.309 332.771 710.355 336.357C711.661 339.43 711.4 340.198 709.309 338.405C705.128 334.564 702.253 316.638 705.912 316.638C707.48 316.638 708.787 314.846 708.787 312.541C708.787 309.98 710.355 308.956 712.445 309.724C714.536 310.492 716.627 309.98 717.411 308.187C717.933 306.395 720.547 307.163 724.728 310.492C731.784 316.126 732.307 317.406 734.136 337.381C735.443 350.441 734.92 352.234 729.432 356.075C726.035 358.38 724.467 360.172 726.035 360.172C733.352 360.172 738.84 349.161 738.579 335.588C738.579 319.199 733.091 310.748 717.672 302.297C709.571 297.944 706.173 293.591 700.947 281.043C697.288 272.592 693.629 265.421 692.845 265.421C692.061 265.421 688.664 271.311 685.528 278.482ZM702.515 298.456C701.208 308.443 698.072 314.077 694.152 314.077C688.664 314.077 689.709 309.724 695.459 308.187C698.856 307.419 700.163 305.114 699.64 299.993C699.117 296.151 698.072 292.566 697.288 291.798C695.197 289.749 690.493 293.591 690.493 297.688C690.493 299.737 689.448 301.273 687.88 301.273C681.869 301.273 686.312 290.262 693.107 287.957C699.117 285.908 703.56 290.774 702.515 298.456Z" fill="#0E4075"/>
<path d="M651.816 316.126C642.669 322.016 644.76 356.587 655.213 367.855C660.44 373.745 668.28 374.513 671.416 369.903C673.768 365.806 672.461 351.978 669.325 348.649C668.019 347.368 666.973 345.319 666.973 343.783C666.973 342.503 668.541 343.527 670.632 346.088C674.029 350.697 674.552 350.697 678.472 346.6C684.221 340.966 687.88 340.966 687.88 346.6C687.88 349.929 688.664 350.185 690.755 348.136C693.107 345.832 693.107 343.015 690.493 337.125C687.619 330.467 686.573 329.698 684.744 333.027C681.085 339.43 670.893 338.149 667.496 330.723C665.144 325.857 665.144 324.321 667.757 324.321C669.325 324.065 668.019 321.76 664.621 319.199C657.827 313.565 656.781 313.309 651.816 316.126ZM661.485 340.454C665.144 350.953 662.792 359.148 657.565 355.051C653.645 351.465 650.248 338.405 652.6 334.564C655.475 329.954 658.611 332.003 661.485 340.454Z" fill="#0E4075"/>
<path d="M708.787 321.759C708.787 323.04 710.616 324.32 712.968 324.32C715.059 324.32 716.104 323.04 715.32 321.759C714.536 320.223 712.707 319.199 711.139 319.199C709.832 319.199 708.787 320.223 708.787 321.759Z" fill="#0E4075"/>
<path d="M265.043 327.138C263.736 330.467 260.339 340.198 257.726 348.649C255.112 357.099 251.454 366.062 249.363 368.367C245.704 372.72 245.966 372.977 253.806 372.977C261.123 372.977 261.646 372.464 259.032 368.111C254.851 361.965 257.726 355.051 264.52 355.051C270.792 355.051 275.758 365.038 271.838 369.647C269.747 372.208 271.576 372.977 279.939 372.977C290.654 372.977 290.654 372.72 286.995 367.087C285.166 364.014 280.723 353.258 277.587 343.527C270.531 322.016 268.179 318.943 265.043 327.138ZM267.918 347.368C268.702 350.697 267.918 352.49 265.566 352.49C263.475 352.49 261.907 350.185 261.907 347.368C261.907 344.551 262.952 342.247 264.259 342.247C265.566 342.247 267.134 344.551 267.918 347.368Z" fill="#0E4075"/>
<path d="M415.309 323.552C414.525 324.577 411.389 334.308 408.253 344.807C405.117 355.307 400.674 366.062 398.322 368.367C394.663 372.72 394.925 372.977 402.765 372.977C410.082 372.977 410.605 372.464 407.991 368.111C403.81 361.965 406.685 355.051 413.479 355.051C419.751 355.051 424.717 365.038 420.797 369.647C418.706 372.208 420.535 372.977 428.898 372.977C439.613 372.977 439.613 372.72 435.954 367.087C434.125 364.014 429.682 353.258 426.546 343.527C420.535 324.833 417.661 319.711 415.309 323.552ZM418.445 350.441C418.706 351.722 416.877 352.49 414.786 352.49C410.866 352.49 409.298 344.551 412.695 341.222C414.525 339.686 417.922 345.576 418.445 350.441Z" fill="#0E4075"/>
<path d="M443.533 329.186C441.442 337.124 443.794 338.917 447.453 332.259C452.941 322.015 455.293 326.881 455.293 348.392C455.293 363.245 454.248 370.415 452.157 371.184C450.328 371.952 453.986 372.72 460.52 372.72C469.405 372.976 471.234 372.208 468.882 369.903C464.178 365.294 464.701 326.881 469.144 326.881C471.234 326.881 473.848 329.442 475.416 332.515C478.029 338.149 478.029 338.149 479.074 330.722L480.381 323.04H462.61C446.408 323.04 444.84 323.552 443.533 329.186Z" fill="#0E4075"/>
<path d="M592.233 345.32C587.267 359.916 582.825 369.135 580.734 369.135C578.643 369.135 574.723 364.526 571.587 358.892L565.838 348.649L571.065 343.015C575.507 338.149 575.769 336.101 573.417 330.723C570.542 324.833 569.235 324.321 552.771 324.577C542.841 324.577 536.569 325.345 538.398 326.113C540.489 326.882 541.534 334.052 541.534 348.649C541.534 363.245 540.489 370.416 538.398 371.184C536.569 371.952 540.227 372.72 546.761 372.72C555.646 372.977 557.475 372.208 555.123 369.904C551.465 366.318 550.942 349.929 554.339 349.929C555.646 349.929 558.782 355.051 561.395 361.453L565.838 372.977H581.518C595.369 372.977 596.937 372.464 592.755 369.647C588.835 366.831 588.313 365.294 590.926 360.685C592.494 357.612 595.63 355.051 597.459 355.051C602.947 355.051 607.651 362.221 606.083 367.855C605.038 372.464 606.083 372.977 615.23 372.977C625.161 372.977 625.683 372.72 622.025 368.367C619.673 366.062 614.707 354.539 610.787 342.759C607.129 331.235 602.947 321.76 601.902 321.76C600.857 321.76 596.675 332.515 592.233 345.32ZM561.918 334.308C562.963 340.454 557.998 348.136 554.339 345.832C551.465 344.295 551.203 330.979 553.817 328.418C556.953 325.345 561.134 328.418 561.918 334.308ZM601.641 349.161C601.641 350.953 599.811 352.49 597.721 352.49C593.539 352.49 592.755 350.185 595.369 343.527C596.675 340.198 597.459 339.942 599.289 342.759C600.595 344.551 601.641 347.624 601.641 349.161Z" fill="#0E4075"/>
<path d="M297.971 327.394C302.152 331.491 302.152 365.806 297.971 369.904C295.619 372.208 296.926 372.977 303.982 372.977H312.867L311.822 361.197C310.776 347.112 314.435 347.88 319.4 362.477C322.275 371.44 323.843 372.977 330.115 372.977H337.171L330.376 360.428C323.843 348.649 323.843 347.88 328.024 343.783C333.251 338.661 333.774 331.747 329.331 327.394C327.502 325.601 319.139 324.321 310.515 324.321C298.232 324.321 295.619 325.089 297.971 327.394ZM319.4 331.747C322.798 338.149 322.798 338.661 317.832 343.271C312.606 348.649 308.947 346.344 308.947 337.381C308.947 326.113 314.435 323.04 319.4 331.747Z" fill="#0E4075"/>
<path d="M342.397 325.857C346.578 327.906 346.84 365.55 342.397 369.904C340.045 372.208 341.352 372.977 348.408 372.977C355.725 372.72 356.509 372.464 352.85 370.16C349.192 368.111 348.146 364.27 348.146 353.258C348.146 335.844 351.021 337.637 357.032 358.636C359.645 366.831 362.258 372.72 363.304 371.696C364.349 370.928 367.746 362.989 370.882 354.282L376.37 338.405L376.632 352.49C376.893 360.428 375.586 368.111 373.757 369.904C371.405 372.208 373.234 372.977 382.12 372.977C391.005 372.977 392.834 372.208 390.482 369.904C386.04 365.55 386.301 327.65 390.744 326.113C392.312 325.345 390.221 324.577 385.517 324.577C377.677 324.321 376.893 325.089 372.712 338.405C370.098 346.088 367.485 351.722 366.701 350.953C365.917 350.185 363.304 344.295 360.952 337.637C357.293 326.625 355.986 325.601 347.885 325.089C342.92 324.833 340.568 325.089 342.397 325.857Z" fill="#0E4075"/>
<path d="M488.744 327.393C490.573 329.186 491.88 337.893 491.88 348.904C491.88 369.903 494.755 374 509.389 374C522.456 374 525.853 368.111 525.853 345.831C525.853 333.283 526.899 326.881 529.251 326.113C530.819 325.345 528.205 324.576 523.24 324.576C517.491 324.576 515.4 325.089 517.491 326.625C522.195 329.442 524.285 354.538 520.888 363.501C518.536 369.391 516.707 370.671 510.696 369.903C503.64 369.135 503.64 368.879 502.856 348.904C502.333 334.308 503.117 327.905 505.469 326.625C507.56 325.345 504.424 324.32 497.368 324.32C488.221 324.32 486.392 325.089 488.744 327.393Z" fill="#0E4075"/>
<path d="M682.13 354.283C683.96 355.051 686.312 354.795 687.096 354.027C688.141 353.258 686.573 352.49 683.698 352.746C680.824 352.746 680.04 353.514 682.13 354.283Z" fill="#0E4075"/>
</svg>
