<svg width="128" height="128" viewBox="0 0 128 128" fill="none" xmlns="http://www.w3.org/2000/svg">
<path d="M54.4739 104.852C42.5409 104.937 31.0562 105.061 19.5758 104.894C17.7935 104.868 16.0306 103.511 14.2586 102.77C15.6641 101.737 16.9305 100.307 18.5046 99.7566C21.615 98.6687 23.0225 96.8461 23.0104 93.5149C22.9415 74.5419 22.9373 55.5685 23.0068 36.5955C23.0224 32.3542 20.4659 30.9335 16.9716 29.9114C15.8954 29.5965 15.1442 28.1707 14.2441 27.2536C15.1806 26.5275 16.1271 25.1575 17.052 25.172C30.4922 25.3827 44.0037 25.0458 57.3404 26.3973C65.7319 27.2477 72.2101 32.2289 74.3863 41.5298C76.5281 50.6834 71.841 56.3205 65.2073 61.5697C66.2481 62.3274 67.1113 63.0405 68.0529 63.6281C76.1972 68.7118 79.888 76.1083 78.4922 85.5269C76.8822 96.3915 69.0574 101.292 59.3039 103.91C57.868 104.296 56.3849 104.505 54.4739 104.852ZM52.7886 67.4229C49.3606 66.9971 45.886 66.0607 42.5252 66.368C40.9227 66.5146 38.3405 68.9572 38.2539 70.4767C37.8194 78.0954 37.7915 85.7706 38.2877 93.3824C38.3931 94.9991 41.0491 96.9502 42.9528 97.7979C44.6141 98.5377 46.8869 98.1014 48.8618 97.9052C56.5165 97.1447 62.072 92.414 62.9147 86.0837C64.0688 77.4137 60.643 70.7499 52.7886 67.4229ZM45.378 32.0039C42.5479 32.5813 38.1032 30.2193 38.0529 35.9029C37.9956 42.3663 37.9957 48.8315 38.1009 55.2939C38.118 56.3487 38.4999 57.7618 39.2392 58.3757C41.9753 60.6473 54.3644 58.6566 56.5488 55.5052C60.3038 50.0876 59.7331 44.1312 57.5447 38.4052C55.6459 33.4369 51.2501 31.9963 45.378 32.0039Z" fill="#1F2D5A"/>
<path d="M108 44.0796C108.001 59.3786 108.001 74.1891 108.002 88.9995C108.003 94.1445 108.013 99.2219 114.856 100.342C115.59 100.462 116.603 102.042 116.545 102.879C116.496 103.598 115.107 104.791 114.295 104.803C105.147 104.945 95.9946 104.948 86.8458 104.821C85.9981 104.81 84.8157 103.801 84.4515 102.966C84.2119 102.417 85.1283 100.639 85.5857 100.617C95.6207 100.128 93.5563 91.7496 93.6734 86.4782C94.0565 69.2232 93.4009 51.9373 92.7298 34.6795C92.6675 33.0767 89.6929 31.5554 88.0154 30.0579C86.8246 28.9949 85.541 28.0359 84.2988 27.0304C85.6038 26.3612 86.8967 25.1415 88.2157 25.1126C96.3658 24.934 104.525 24.9096 112.673 25.134C114.06 25.1723 115.408 26.6582 116.774 27.4754C115.629 28.3588 114.61 29.6492 113.315 30.0549C107.802 31.7817 108.103 36.2527 108.006 40.5957C107.984 41.5937 108.001 42.5926 108 44.0796Z" fill="#1F2D5A"/>
</svg>
