<svg width="1000" height="126" viewBox="0 0 1000 126" fill="none" xmlns="http://www.w3.org/2000/svg">
<g clip-path="url(#clip0_972_22)">
<path d="M36.9992 127C25.0258 127 13.0523 127 1.03906 127C1.03906 85.1196 1.03906 43.2391 1.03906 1C12.6843 1 24.3731 1 36.5307 1.46866C36.9994 43.6249 36.9993 85.3124 36.9992 127Z" fill="#6879AF" fill-opacity="0.76"/>
<path d="M79 127C67.6458 127 56.2915 127 44.4686 126.531C43.9999 84.3751 43.9999 42.6876 44 1C55.3542 1 66.7085 1 78.5305 1.46866C78.9988 43.6249 78.9994 85.3124 79 127Z" fill="#42507D" fill-opacity="0.82"/>
<path d="M120.531 1C121 42.6876 121 84.3751 121 126.531C109.646 127 98.2915 127 86.4704 126.531C86.0023 84.3751 86.0012 42.6876 86 1C97.3542 1 108.708 1 120.531 1Z" fill="#1F2D5A"/>
<path d="M938.27 38.0671C938.182 36.7418 937.874 35.387 938.047 34.0964C938.68 29.3563 936.853 26.6059 932.112 25.4173C930.678 25.0577 929.584 23.3423 928.334 22.2479C929.805 21.5061 931.262 20.1545 932.749 20.122C941.89 19.9226 951.041 19.9231 960.183 20.1182C961.682 20.1502 963.154 21.4746 964.638 22.2016C963.408 23.3067 962.335 25.0501 960.918 25.4003C956.172 26.5733 954.888 29.3147 954.881 34.0513C954.857 49.3161 954.212 64.5789 954.065 79.845C954.013 85.2928 954.75 90.7451 955.031 96.2003C955.211 99.6733 957.56 100.917 960.368 100.854C966.979 100.704 973.626 100.499 980.171 99.6479C985.717 98.9267 989.332 94.7761 991.308 89.976C993.149 85.504 995.923 84.4145 1000.57 85.0606C1001 85.4442 1001 85.8887 1001 86.6664C998.729 91.9596 996.054 96.78 994.286 101.913C991.876 108.91 992.171 109.115 984.645 108.975C971.06 108.723 957.478 108.242 943.893 108.059C939.783 108.004 935.664 108.798 931.548 108.805C930.452 108.806 928.678 107.484 928.456 106.492C928.254 105.584 929.703 103.353 930.468 103.332C938.223 103.125 938.458 98.0226 938.027 92.3355C937.965 91.5132 938.08 90.6775 938.304 89.006C938.664 77.0743 938.939 65.9848 938.958 54.8948C938.967 49.286 938.514 43.6764 938.27 38.0671Z" fill="#1F2D5A"/>
<path d="M215.144 47.8372C212.15 52.5103 209.261 56.791 206.215 61.3049C207.242 61.9985 209.206 63.1807 211.011 64.5689C225.095 75.3954 223.627 98.8448 203.316 105.652C199.296 107 194.93 107.7 190.684 107.911C179.08 108.488 167.456 108.65 155.839 108.96C154.51 108.996 153.023 109.288 151.892 108.803C150.79 108.33 149.383 107.038 149.343 106.055C149.304 105.095 150.644 103.489 151.685 103.171C158.483 101.092 158.981 100.624 158.989 93.5156C159.012 74.0416 158.942 54.5674 159.033 35.0938C159.056 30.096 158.038 26.2961 152.223 25.3505C151.088 25.166 150.229 23.2898 149.242 22.1938C150.196 21.4863 151.158 20.1521 152.102 20.1651C166.543 20.3653 181.034 20.1153 195.401 21.317C203.694 22.0106 211.197 26.3183 214.182 34.9082C215.516 38.7472 214.952 43.2455 215.144 47.8372ZM186.25 66.0061C183.919 66.0196 181.587 66.066 179.257 66.0384C176.329 66.0037 175.024 67.4519 175.035 70.3316C175.066 78.6572 174.898 86.9882 175.189 95.3038C175.244 96.8739 176.732 99.2698 178.109 99.771C185.389 102.419 192.427 100.889 198.176 96.0906C203.943 91.2769 204.005 84.4964 202.007 77.7339C199.839 70.3926 194.969 66.2931 186.25 66.0061ZM196.035 53.4318C197.002 49.3743 199.147 45.1865 198.715 41.2837C197.398 29.3789 189.61 25.4644 178.084 27.9828C176.907 28.2401 175.24 30.0229 175.205 31.1413C174.963 38.9426 174.993 46.7582 175.214 54.5613C175.245 55.6574 176.713 57.556 177.654 57.6465C183.926 58.2498 190.332 58.9103 196.035 53.4318Z" fill="#1F2D5A"/>
<path d="M329.233 102.363C333.453 101.377 333.87 98.1319 333.889 95.2239C334.02 74.7292 334.034 54.2328 333.89 33.7383C333.861 29.7236 332.486 26.3245 327.54 25.5396C326.043 25.3022 324.824 23.3119 323.479 22.1245C325.156 21.4199 326.825 20.1258 328.511 20.1043C341.673 19.9365 354.863 19.4944 367.996 20.1319C389.602 21.1805 406.034 32.298 410.23 53.9955C414.338 75.2365 407.381 94.2052 386.569 104.543C376.711 109.44 365.72 109.366 354.822 108.827C347.238 108.453 339.619 108.773 332.015 108.796C331.352 108.798 330.667 109.039 330.029 108.935C327.836 108.579 324.647 110.245 324.16 106.239C323.702 102.471 326.97 103.351 329.233 102.363ZM373.436 100.259C379.215 98.9506 384.051 95.9929 386.944 90.8456C394.817 76.8375 395.102 61.8253 390.64 46.9368C387.832 37.5687 381.901 29.8787 371.189 28.3748C366.29 27.6871 361.207 27.9137 356.242 28.2459C352.579 28.4909 350.058 30.6334 350.055 34.7232C350.04 54.5452 350.022 74.3671 350.068 94.1889C350.076 97.5839 351.572 100.047 355.315 100.193C361.093 100.42 366.878 100.484 373.436 100.259Z" fill="#1F2D5A"/>
<path d="M657.386 108.822C652.445 103.358 647.635 98.1301 643.348 92.5045C630.59 75.7623 618.044 58.8585 605.384 42.0407C604.721 41.1589 603.776 40.4884 602.941 39.6994C602.552 40.141 602.176 40.3685 602.175 40.5974C602.11 59.0805 602.083 77.5637 602.032 96.0469C602.017 101.26 606.119 101.669 609.684 103.046C611.289 103.666 612.441 105.458 613.799 106.718C612.048 107.379 610.309 108.571 608.545 108.61C600.609 108.785 592.662 108.741 584.728 108.503C583.185 108.457 581.679 107.196 580.156 106.496C581.344 105.322 582.348 103.46 583.749 103.087C592.591 100.735 592.283 100.425 592.705 91.2261C593.55 72.779 593.149 54.2629 592.866 35.7814C592.741 27.6683 591.922 27.3475 583.939 25.0692C582.553 24.6736 581.477 23.1908 580.258 22.2101C581.706 21.4794 583.135 20.1689 584.607 20.1175C591.26 19.8856 597.933 20.1806 604.586 19.9375C608.213 19.8049 610.15 21.3747 612.185 24.2337C624.761 41.9015 637.581 59.3958 650.32 76.9477C650.752 76.8365 651.184 76.7252 651.616 76.614C651.744 75.1101 651.978 73.6064 651.981 72.1022C652.011 60.1112 652.027 48.12 651.985 36.1291C651.957 28.2943 651.033 27.2765 643.43 24.9806C642.204 24.6103 641.305 23.1565 640.255 22.2036C641.538 21.4783 642.808 20.1533 644.107 20.125C652.705 19.9373 661.311 19.9372 669.909 20.1254C671.201 20.1537 672.465 21.4857 673.741 22.2146C672.66 23.1679 671.73 24.6031 670.474 24.9963C662.192 27.5892 660.99 29.0031 661.015 37.7625C661.08 60.4042 661.127 83.0467 661.406 105.686C661.445 108.874 659.85 108.825 657.386 108.822Z" fill="#1F2D5A"/>
<path d="M500.337 81.1906C492.914 98.9539 479.938 109.112 461.09 109.769C443.454 110.383 427.538 100.4 420.296 81.1089C412.48 60.2868 418.693 39.0332 437.557 25.7716C454.97 13.5302 481.039 18.3344 493.671 35.4892C503.974 49.4826 505.344 64.6514 500.337 81.1906ZM480.153 41.5C476.349 37.4078 473.064 32.5973 468.624 29.3836C461.053 23.904 449.267 26.5303 443.652 33.5C431.204 48.9522 433.228 78.6283 444.936 93.325C452.56 102.896 464.678 105.017 473.63 98.0691C479.492 93.5188 482.554 86.9 483.879 79.7866C486.261 66.9999 485.737 54.335 480.153 41.5Z" fill="#1F2D5A"/>
<path d="M292.731 88.5233C293.934 83.0137 295.672 77.8711 295.857 72.6733C296.295 60.3556 296.036 48.0116 295.977 35.6786C295.943 28.4996 295.214 27.8089 288.324 25.5278C286.771 25.0134 285.595 23.3586 284.245 22.2287C285.856 21.4896 287.451 20.1558 289.081 20.1119C297.184 19.8938 305.299 19.9079 313.404 20.1166C314.856 20.154 316.275 21.4892 317.709 22.2253C316.564 23.1804 315.566 24.5909 314.25 25.0169C305.481 27.8542 305.037 28.3091 305.01 37.5679C304.974 49.7345 305.298 61.9112 304.895 74.0646C304.583 83.4514 302.934 92.8222 295.709 99.6655C284.459 110.321 270.866 110.845 257.127 106.32C243.995 101.995 237.731 91.6175 237.065 78.1791C236.342 63.5675 236.124 48.9214 236.104 34.2898C236.097 29.2834 234.413 26.5256 229.608 25.2129C228.302 24.8559 227.381 23.0876 226.283 21.967C227.635 21.319 228.978 20.1343 230.342 20.1097C239.505 19.9443 248.675 19.9413 257.838 20.1208C259.154 20.1466 260.445 21.4374 261.748 22.1428C260.796 23.2828 259.94 25.303 258.877 25.4181C252.515 26.107 252.198 31.1239 252.191 35.3644C252.169 49.8257 251.932 64.36 253.252 78.7307C254.798 95.5466 270.784 104.131 284.865 96.3894C287.893 94.7243 290.018 91.4163 292.731 88.5233Z" fill="#1F2D5A"/>
<path d="M886.143 106.049C887.262 104.728 888.257 103.345 889.541 102.98C893.386 101.887 894.803 99.4281 893.7 95.8516C892.137 90.7848 890.378 85.7451 888.195 80.9242C887.572 79.55 885.222 78.2407 883.603 78.1616C877.123 77.8451 870.604 77.7741 864.134 78.1795C862.299 78.2945 859.821 79.934 858.966 81.569C856.826 85.6589 855.282 90.0914 853.806 94.4893C851.963 99.9778 853.043 101.392 858.588 103.039C860.184 103.513 861.368 105.372 862.74 106.596C860.963 107.286 859.202 108.517 857.405 108.572C850.139 108.793 842.86 108.748 835.591 108.563C834.112 108.526 832.66 107.456 831.195 106.863C832.212 105.51 832.986 103.339 834.29 102.952C838.642 101.661 841.353 99.1344 843.071 94.9594C850.962 75.7829 858.974 56.6562 867.006 37.538C869.12 32.5058 871.308 27.4909 873.788 22.6343C874.51 21.2209 876.424 19.4577 877.674 19.5446C878.903 19.6301 880.443 21.6733 881.059 23.1796C888.47 41.3011 895.732 59.4836 903.039 77.6476C905.515 83.8035 907.624 90.1523 910.666 96.0162C912.095 98.7708 915.369 100.551 917.743 102.839C919.1 104.148 920.327 105.59 921.612 106.972C919.908 107.607 918.215 108.751 916.497 108.79C908.077 108.979 899.646 109.007 891.228 108.764C889.514 108.715 887.841 107.259 886.143 106.049ZM871.389 51.0268C869.106 56.6235 866.823 62.2201 864.422 68.1055C871.066 70.9778 876.808 70.3476 883.092 67.8589C880.239 60.373 877.516 53.2294 874.227 44.5979C872.954 47.5218 872.332 48.9493 871.389 51.0268Z" fill="#1F2D5A"/>
<path d="M718.746 95.5339C723.383 85.4217 718.614 79.9359 712.911 75.9872C705.161 70.6212 696.955 65.8421 689.611 59.9764C675.537 48.7354 679.365 28.4651 697.441 21.0568C707.966 16.7432 718.344 19.4132 728.619 22.2949C729.57 22.5618 730.685 24.0998 730.807 25.1535C731.376 30.0866 731.878 35.0586 731.842 40.0127C731.831 41.6347 730.127 43.2447 729.196 44.8601C727.798 43.5773 725.738 42.5532 725.117 40.9662C722.674 34.7159 719.564 29.2887 712.709 27.0426C707.661 25.3888 702.24 26.7198 699.138 30.4455C696.331 33.816 695.43 40.7377 698.512 44.4325C701.93 48.5289 706.261 51.9794 710.594 55.1677C716.463 59.4855 723.326 62.6057 728.679 67.4403C742.98 80.358 737.444 101.331 718.549 108.024C709.085 111.376 699.911 108.608 690.58 107.723C684.59 107.156 681.634 104.372 681.276 98.4145C681.048 94.6181 680.2 90.847 680.153 87.058C680.135 85.6363 681.593 84.196 682.378 82.7642C683.957 83.797 685.915 84.5235 687.047 85.9194C690.63 90.3387 693.175 95.9185 697.471 99.368C703.928 104.553 715.379 102.348 718.746 95.5339Z" fill="#1F2D5A"/>
<path d="M775.008 73.9998C775.005 61.5055 775.094 49.5102 774.966 37.5172C774.887 30.1217 776.725 29.0751 766.621 27.3274C758.063 25.8468 752.473 28.5764 748.998 36.4739C747.327 40.2719 747.11 40.3577 742.441 38.9527C742.993 33.5707 743.53 28.153 744.109 22.7398C744.427 19.7675 745.866 18.7998 749.069 18.8837C769.184 19.4103 789.305 19.7072 809.426 19.9349C812.548 19.9702 815.723 19.4772 818.791 18.8337C821.857 18.1904 822.681 19.7502 822.925 22.2164C823.48 27.8022 823.996 33.3917 824.539 39.096C821.6 40.6025 819.575 40.1794 818.116 37.0019C813.828 27.6617 803.466 23.8861 794.626 28.5906C793.343 29.2731 792.267 31.4347 792.135 32.9996C791.55 39.938 791.149 46.9055 791.044 53.8679C790.878 64.8601 790.907 75.8581 791.054 86.8509C791.104 90.6462 791.171 94.6301 792.356 98.1482C793.032 100.153 796.057 101.31 797.88 103.003C799.005 104.048 799.859 105.383 800.835 106.588C799.442 107.344 798.065 108.72 796.654 108.755C787.732 108.975 778.801 109.009 769.879 108.816C768.299 108.782 766.749 107.396 765.185 106.634C766.409 105.415 767.457 103.454 768.889 103.115C773.408 102.048 775.226 99.6232 775.058 94.9877C774.812 88.1667 775.003 81.3299 775.008 73.9998Z" fill="#1F2D5A"/>
<path d="M563.028 38.3136C563.011 55.0944 562.941 71.4063 563.051 87.7171C563.075 91.3417 563.191 95.1422 564.313 98.5129C564.928 100.359 567.817 101.386 569.522 102.954C570.751 104.083 571.719 105.497 572.803 106.784C571.192 107.45 569.593 108.657 567.968 108.693C559.383 108.881 550.789 108.871 542.204 108.683C540.539 108.646 537.862 107.898 537.451 106.803C536.427 104.074 538.649 103.299 541.087 102.901C545.021 102.259 547.07 100.081 547.044 95.7323C546.919 74.9276 546.887 54.1208 547.065 33.3168C547.106 28.514 544.752 26.5355 540.651 25.2385C539.32 24.8173 538.387 23.135 537.272 22.0295C538.604 21.3611 539.926 20.1381 541.27 20.1136C550.588 19.9444 559.911 19.9607 569.23 20.1007C570.476 20.1194 571.708 21.1689 572.946 21.741C572.433 22.8016 572.034 24.7067 571.388 24.7946C563.359 25.8876 563.849 32.2557 563.028 38.3136Z" fill="#1F2D5A"/>
</g>
<defs>
<clipPath id="clip0_972_22">
<rect width="1000" height="126" fill="white"/>
</clipPath>
</defs>
</svg>
