<svg width="533" height="533" viewBox="0 0 533 533" fill="none" xmlns="http://www.w3.org/2000/svg">
<path d="M41.5732 131.649C34.6442 135.202 33.7559 140.71 33.7559 176.598C33.7559 209.111 33.9335 211.243 37.4869 215.863L41.3955 220.66L63.7815 219.949C84.5685 219.416 86.7005 219.061 93.6295 214.441C97.8935 211.776 104.29 206.446 107.843 202.538L114.594 195.431L123.478 204.137C136.447 216.929 144.087 220.304 158.833 220.304C167.894 220.304 173.047 219.238 179.087 216.396C187.793 211.954 198.453 200.939 201.118 193.121C204.316 184.593 205.915 187.969 206.448 203.781L206.981 219.416H216.753H226.524L227.413 191.345L228.301 163.096L234.164 157.943C241.981 151.014 250.154 151.014 257.971 157.943L263.834 163.096L264.723 191.345L265.611 219.416H275.383H285.154L286.043 191.345L286.931 163.096L292.794 157.943C300.611 151.014 308.784 151.014 316.601 157.943L322.464 163.096L323.353 191.345L324.241 219.416H334.013H343.784L344.317 205.203C344.85 186.725 345.916 183.883 349.292 191.878C353.201 200.939 360.13 209.289 368.302 214.619C375.587 219.238 376.83 219.416 404.191 219.949L432.618 220.66L442.922 206.269C448.608 198.274 453.938 191.878 454.826 191.878C455.537 191.878 460.867 198.274 466.552 206.091L476.679 220.304H488.05C494.801 220.304 499.243 219.594 499.243 218.35C499.243 215.152 495.867 209.822 482.187 191.522C474.547 181.395 469.572 172.867 470.283 171.801C470.994 170.558 477.39 162.385 484.496 153.324C491.603 144.263 497.466 135.735 497.466 134.314C497.466 132.004 495.156 131.471 486.095 131.471H474.547L465.131 144.618C459.978 151.903 455.359 157.943 454.826 157.943C454.293 158.121 449.496 152.08 444.166 144.618L434.572 131.116L405.079 131.826C376.653 132.359 375.587 132.537 368.302 137.156C359.597 142.842 352.312 152.08 349.114 161.141L346.805 167.893L344.85 162.563C339.876 149.238 338.454 146.928 330.992 140.354C316.957 127.918 295.637 127.029 281.246 137.867L275.383 142.309L269.697 137.867C260.636 131.116 248.733 128.806 236.829 131.471C228.834 133.248 225.281 135.202 218.352 142.131C213.199 147.283 209.113 153.324 207.692 157.943C205.204 166.471 203.428 167.182 202.006 160.075C200.407 152.258 190.103 140.354 180.331 135.202C173.402 131.649 168.96 130.76 159.011 130.76C144.087 130.76 134.848 134.847 122.589 146.75L114.417 154.568L107.665 147.639C103.934 143.908 96.4722 138.578 91.1422 135.913C82.7919 131.649 78.8832 130.76 63.4262 130.227C52.5885 129.872 43.7052 130.405 41.5732 131.649ZM83.6802 157.766C87.9442 160.608 93.8072 165.761 96.4722 169.314L101.447 175.888L93.8072 184.06C84.0355 194.543 74.7969 199.34 65.2029 198.629L57.7409 198.096L57.2079 175.355L56.6749 152.791H66.2689C73.5532 152.791 77.4619 153.857 83.6802 157.766ZM172.514 156.877C184.595 165.05 185.483 185.482 174.29 193.654C168.072 197.918 159.899 199.873 153.503 198.274C147.996 196.852 129.696 180.152 129.696 176.421C129.696 172.69 136.98 163.629 144.62 157.943C153.681 151.37 163.808 151.014 172.514 156.877ZM432.262 163.096L440.257 173.4L431.196 186.192L421.958 198.984H404.013C388.201 198.984 385.358 198.451 380.028 194.898C376.653 192.766 373.81 189.568 373.455 187.791C372.922 185.304 375.231 184.771 392.11 184.416L411.298 183.883V175.888V167.893L392.11 167.36C375.231 167.004 372.922 166.471 373.455 163.984C373.81 162.207 376.653 159.009 380.028 156.877C385.358 153.324 388.201 152.791 405.079 152.791H424.09L432.262 163.096Z" fill="black"/>
<path d="M57.7409 287.818C43.8829 290.127 35.1772 300.077 34.1112 314.645C32.6899 334.189 44.7712 347.336 63.7816 347.158C69.2892 347.158 76.2182 345.915 79.0609 344.493C84.2132 342.006 84.3909 341.473 84.3909 329.569V317.133L75.1522 316.6C65.7359 316.067 65.7359 316.067 65.7359 321.219C65.7359 325.128 66.8019 326.727 69.4669 327.437C75.3299 329.036 72.4872 333.123 65.2029 333.656C56.8526 334.366 52.5886 332.057 49.0352 324.417C45.4819 316.955 46.7256 310.914 52.7662 304.696C57.7409 299.899 66.6242 298.655 73.0202 302.209C75.8629 303.63 77.4619 303.452 80.1269 300.965C81.9036 299.366 83.5026 297.056 83.5026 295.99C83.5026 291.016 67.8679 286.041 57.7409 287.818Z" fill="black"/>
<path d="M258.681 288.706C244.113 293.858 236.473 307.006 238.96 323.173C240.559 334.366 251.93 345.382 263.301 347.158C286.22 350.534 304.164 329.036 296.88 306.828C294.215 298.833 284.798 290.305 275.915 287.995C267.565 285.686 267.209 285.686 258.681 288.706ZM279.824 304.518C285.509 310.204 286.93 316.777 284.265 323.529C281.245 330.458 276.093 334.011 268.275 334.011C260.103 334.011 254.773 330.28 252.285 322.64C248.554 311.092 256.372 300.432 268.808 300.254C273.605 300.254 276.803 301.498 279.824 304.518Z" fill="black"/>
<path d="M141.068 290.127C140.712 291.371 140.535 304.341 140.712 318.909L141.245 345.559L147.997 346.092L154.57 346.625V334.899C154.57 324.772 154.926 323.173 157.591 323.706C159.19 324.062 163.098 329.036 166.119 334.899C171.093 344.671 171.982 345.559 178.2 346.092C181.753 346.448 184.774 345.915 184.774 344.849C184.774 343.783 182.464 338.986 179.444 334.011C173.225 323.529 173.048 322.107 177.312 320.864C181.22 319.62 186.55 310.737 186.55 305.584C186.55 300.077 181.398 292.082 176.423 289.772C170.205 286.929 142.311 287.285 141.068 290.127ZM168.251 299.544C170.383 300.077 172.692 302.209 173.225 304.163C175.002 309.493 170.916 312.691 162.388 312.691C154.748 312.691 154.57 312.513 154.57 306.828C154.57 303.452 155.103 300.254 155.814 299.721C157.235 298.122 163.098 298.122 168.251 299.544Z" fill="black"/>
<path d="M353.557 309.138C353.557 324.417 354.267 332.057 356.044 335.61C364.75 352.311 391.755 350.534 399.039 332.945C400.638 329.036 401.527 320.153 401.527 307.361V287.64L394.953 288.173L388.202 288.706L387.313 309.671C386.425 332.234 385.537 334.011 376.298 334.011C368.125 334.011 365.993 328.681 365.993 307.006V287.818H359.775H353.557V309.138Z" fill="black"/>
<path d="M459.091 290.128C458.736 291.371 458.558 304.341 458.736 318.91L459.269 345.56H465.487H471.705L472.238 335.255L472.771 325.128H478.99C486.452 325.128 494.802 321.042 497.467 316.422C498.355 314.468 499.244 309.671 499.244 305.585C499.244 299.544 498.178 297.057 493.736 292.97C488.584 288.173 487.162 287.818 474.193 287.818C464.243 287.818 459.802 288.529 459.091 290.128ZM486.629 303.453C489.294 308.427 485.741 312.691 478.812 312.691C472.949 312.691 472.594 312.336 472.594 306.473C472.594 300.61 472.949 300.255 478.812 300.255C482.898 300.255 485.563 301.321 486.629 303.453Z" fill="black"/>
<path d="M33.4009 397.26C31.4466 401.347 31.6243 402.413 35.3553 405.255C39.0863 408.276 42.8173 408.631 69.6449 408.631C87.0563 408.631 101.27 407.92 103.224 406.854C106.955 404.722 107.666 397.971 104.468 394.773C103.046 393.352 92.5639 392.641 68.9343 392.641H35.5329L33.4009 397.26Z" fill="#EB161A"/>
<path d="M128.231 397.62C126.277 401.706 126.454 402.772 130.185 405.615C133.916 408.635 137.647 408.99 164.475 408.99C181.886 408.99 196.1 408.28 198.054 407.214C201.785 405.082 202.496 398.33 199.298 395.132C197.876 393.711 187.394 393 163.764 393H130.363L128.231 397.62Z" fill="#E49A0C"/>
<path d="M231.231 397.62C229.277 401.706 229.454 402.772 233.185 405.615C236.916 408.635 240.647 408.99 267.475 408.99C284.886 408.99 299.1 408.28 301.054 407.214C304.785 405.082 305.496 398.33 302.298 395.132C300.876 393.711 290.394 393 266.764 393H233.363L231.231 397.62Z" fill="#FFD84F"/>
<path d="M342.231 397.62C340.277 401.706 340.454 402.772 344.185 405.615C347.916 408.635 351.647 408.99 378.475 408.99C395.886 408.99 410.1 408.28 412.054 407.214C415.785 405.082 416.496 398.33 413.298 395.132C411.876 393.711 401.394 393 377.764 393H344.363L342.231 397.62Z" fill="#7BB6F8"/>
<path d="M438.809 394.244C436.144 396.732 437.565 405.437 440.941 407.214C443.073 408.28 457.464 408.991 475.586 408.991C506.677 408.991 506.855 408.991 509.52 404.727C511.83 401.351 512.008 399.574 510.409 396.732C508.632 393.178 507.033 393.001 474.164 393.001C455.332 393.001 439.342 393.534 438.809 394.244Z" fill="#0D4079"/>
</svg>
