<svg width="800" height="534" viewBox="0 0 800 534" fill="none" xmlns="http://www.w3.org/2000/svg">
<path d="M443.066 180.8C435.733 183.467 427.466 191.867 424.533 199.733C422.533 205.067 422.133 211.867 421.6 244.933L421.066 284H434.533H448V245.467V206.8L451.466 204.133C456.133 200.4 458.933 200.667 463.866 204.8C468 208.267 469.333 213.867 467.2 219.333C466.133 222 459.733 225.333 455.333 225.333C452 225.333 452 225.333 452 237.333V249.333H458.8C462.666 249.333 468 248.667 470.8 247.733C477.6 245.733 486 238.4 489.6 231.467C493.066 224.8 494.266 209.733 492 201.333C490 193.6 479.066 182.667 471.2 180.267C463.866 178.133 450 178.4 443.066 180.8Z" fill="#C01313"/>
<path d="M66.666 232V284H79.3327H91.9994V232V180H79.3327H66.666V232Z" fill="#C01313"/>
<path d="M381.334 232V284H393.334H405.334V232V180H393.334H381.334V232Z" fill="#C01313"/>
<path d="M506.666 232V284H517.999H529.333V232V180H517.999H506.666V232Z" fill="#C01313"/>
<path d="M238.933 231.067L239.333 268.933L243.2 273.867C248.667 281.067 255.733 284 268.4 284H278.667V273.333V262.667H272.933C269.867 262.667 265.867 261.733 264.267 260.533C261.6 258.667 261.333 257.467 261.333 245.867V233.333H269.333H277.333V222V210.667H269.333H261.467L261.067 202.267L260.667 194L249.6 193.6L238.533 193.2L238.933 231.067Z" fill="#C01313"/>
<path d="M693.334 228.933C693.334 262.4 693.467 264.8 696.134 270.4C697.867 273.867 701.201 277.6 704.401 279.733C709.067 282.8 711.467 283.333 721.601 283.733L733.334 284.267V273.467V262.667H727.601C724.534 262.667 720.534 261.733 718.934 260.533C716.267 258.667 716.001 257.467 716.001 246V233.467L724.401 233.067L732.667 232.667V222V211.333L724.401 210.933L716.001 210.533V202V193.333H704.667H693.334V228.933Z" fill="#C01313"/>
<path d="M126.533 211.067C118.533 214.133 113.733 218.267 110.133 225.6C106.799 232.267 106.666 233.2 106.666 258.267V284H117.999H129.333V260.8V237.467L132.799 234.8C137.333 231.2 138.133 231.333 141.999 235.333C145.333 238.533 145.333 238.933 145.333 261.333V284H157.466H169.599L169.066 258.267C168.666 235.2 168.266 232.133 165.733 227.333C162.399 220.933 156.933 215.2 151.466 212.4C145.999 209.6 132.533 208.8 126.533 211.067Z" fill="#C01313"/>
<path d="M307.999 213.333C293.999 219.866 286.666 231.733 286.666 248C286.666 260.533 290.399 269.2 299.066 276.933C306.533 283.333 314.399 285.866 325.199 285.066C336.133 284.266 337.333 282.933 337.333 272V263.066L329.733 263.733C317.199 264.8 309.999 259.066 309.999 248C309.999 237.733 316.266 232 327.466 232C332.666 232 334.266 232.666 338.133 236.533L342.666 241.066V262.533V284H354.799H366.933L366.399 258.933C365.999 231.866 365.466 229.866 357.733 222.133C350.799 215.066 340.799 211.466 326.666 211.066C315.999 210.666 313.066 211.066 307.999 213.333Z" fill="#C01313"/>
<path d="M563.067 214C549.067 221.066 541.734 234.266 542.934 250.533C544.534 271.333 558.534 285.2 578.267 285.333C582.801 285.333 588.134 284.666 590.001 283.733C593.067 282.4 593.334 281.6 593.334 272.8V263.333H583.867C574.934 263.333 574.267 263.066 570.534 258.933C567.334 255.333 566.667 253.466 566.667 247.866C566.667 241.866 567.201 240.533 571.201 236.533C575.067 232.666 576.667 232 581.867 232C589.201 232 593.867 234 596.934 238.533C598.934 241.466 599.467 245.6 599.734 262.933L600.267 284H611.467H622.667V260C622.667 234.266 622.001 230.8 615.601 223.333C613.734 221.066 608.667 217.466 604.401 215.333C597.734 212 594.801 211.466 583.334 210.933C571.067 210.533 569.467 210.8 563.067 214Z" fill="#C01313"/>
<path d="M189.334 214.933C181.734 220.133 179.334 224.533 179.334 233.333C179.334 243.733 182.134 247.333 195.067 253.733C210.534 261.2 208.934 264 189.201 264H177.334V274V284H193.067C201.601 284 211.067 283.333 213.867 282.533C220.801 280.667 226.134 275.2 228.001 268C231.334 255.733 226.534 247.867 211.201 240.667C203.734 237.067 201.334 235.333 201.601 233.6C202.001 231.733 204.001 231.333 213.734 230.933L225.334 230.533V221.333V212H209.467C195.334 212 193.334 212.267 189.334 214.933Z" fill="#C01313"/>
<path d="M643.867 215.067C638.934 218.267 633.334 228 633.334 233.333C633.334 235.2 634.667 239.467 636.401 242.667C638.934 247.867 640.667 249.333 649.334 253.467C656.401 256.933 659.334 259.067 659.334 260.8C659.334 263.067 658.001 263.333 646.401 263.733L633.334 264.133V274.133V284.267L651.067 283.733C671.867 283.2 676.134 281.6 681.067 272C688.134 258 682.667 247.867 663.734 239.467C656.134 236.133 654.001 233.067 658.134 231.467C659.334 231.067 664.667 230.667 670.134 230.667H680.001V221.333V212H664.134C650.001 212 647.867 212.267 643.867 215.067Z" fill="#C01313"/>
<path d="M69.8667 327.066C66.5333 330 66.2667 330.8 67.3333 334.133C68.2667 336.8 70.8 339.066 75.3333 341.333C82.2667 344.8 83.6 347.333 79.7333 349.733C78 350.933 76.8 350.666 74.8 348.8C73.4667 347.466 70.8 346.666 69.0667 346.933L66 347.333L69.6 350.933C76 357.6 88 354.8 88 346.8C88 342.533 85.3333 339.733 78.4 336.933C74.9333 335.466 73.3333 334 73.3333 332.266C73.3333 328.666 77.2 327.466 80.1333 330.133C81.3333 331.2 83.7333 332 85.3333 331.733C88.2667 331.333 88.2667 331.333 85.8667 328.266C84.4 326.666 81.2 324.933 78.5333 324.533C74.6667 323.866 73.0667 324.4 69.8667 327.066Z" fill="#6A6A6A"/>
<path d="M124.267 325.6C120.801 327.333 119.067 332.8 120.934 335.866C121.601 337.066 125.067 339.333 128.534 341.066C133.601 343.466 134.801 344.666 134.401 347.066C133.867 350.666 130.401 351.466 127.467 348.666C126.267 347.466 124.001 346.666 122.401 346.933L119.334 347.333L122.934 350.933C129.467 357.6 141.334 354.533 141.334 346.266C141.334 342.533 138.401 339.6 131.734 336.933C128.267 335.466 126.667 334 126.667 332.266C126.667 328.8 130.534 327.466 133.334 330C136.134 332.533 140.001 332.666 140.001 330.133C140.001 325.733 130.001 322.8 124.267 325.6Z" fill="#6A6A6A"/>
<path d="M358.134 326C350.934 329.733 348.534 336.133 350.8 344.533C352.667 351.333 358.667 355.067 366.667 354.267C370.934 353.733 373.467 352.667 375.6 350.133C382.267 342.267 380.134 329.6 371.467 326C365.6 323.467 362.934 323.467 358.134 326ZM370.667 331.733C372.667 333.333 373.6 335.6 373.734 338.933C373.867 345.2 370.4 349.333 364.934 349.333C359.2 349.333 356 346 356 339.733C356 330.8 364 326.267 370.667 331.733Z" fill="#6A6A6A"/>
<path d="M524.399 326C510.533 332 515.466 354.667 530.533 354.667C536.133 354.667 543.999 349.467 543.999 345.867C543.999 343.067 539.466 343.6 536.666 346.667C535.333 348.133 532.533 349.333 530.533 349.333C520.133 349.333 518.266 333.6 528.399 330.133C531.333 329.067 532.799 329.333 535.999 331.733C539.599 334.4 543.999 335.6 543.999 333.867C543.999 331.333 540.533 327.467 536.666 325.867C531.066 323.6 529.866 323.6 524.399 326Z" fill="#6A6A6A"/>
<path d="M92 326.133C92 326.533 94.1333 330.667 96.6667 335.2C99.8667 341.067 101.333 345.333 101.333 349.067C101.333 353.733 101.733 354.667 104 354.667C106.133 354.667 106.667 353.733 106.667 350C106.667 347.2 108.667 341.333 111.333 336C113.867 330.933 116 326.4 116 326C116 325.6 114.8 325.333 113.333 325.333C111.6 325.333 109.733 327.333 107.467 331.6L104.267 338L101.2 331.6C98.8 326.8 97.4667 325.333 95.0667 325.333C93.3333 325.333 92 325.733 92 326.133Z" fill="#6A6A6A"/>
<path d="M144 327.333C144 328.667 145.333 329.333 148 329.333H152V342C152 354.667 152 354.667 155.333 354.667C158.667 354.667 158.667 354.667 158.667 342V329.333H162.667C165.333 329.333 166.667 328.667 166.667 327.333C166.667 325.733 164.533 325.333 155.333 325.333C146.133 325.333 144 325.733 144 327.333Z" fill="#6A6A6A"/>
<path d="M170.666 340V354.667H179.333C186.133 354.667 187.999 354.267 187.999 352.667C187.999 351.2 186.399 350.667 181.999 350.667C175.999 350.667 175.999 350.667 175.999 346C175.999 341.467 176.133 341.333 181.333 341.333C185.199 341.333 186.666 340.8 186.666 339.333C186.666 337.867 185.199 337.333 181.333 337.333C176.266 337.333 175.999 337.067 175.999 333.333C175.999 329.467 176.266 329.333 181.999 329.333C186.399 329.333 187.999 328.8 187.999 327.333C187.999 325.733 186.133 325.333 179.333 325.333H170.666V340Z" fill="#6A6A6A"/>
<path d="M193.334 339.867C193.334 353.733 193.467 354.667 196.001 354.667C198.267 354.667 198.534 353.6 198.934 344.4L199.334 334.133L202.801 344C205.467 351.6 206.934 354.133 209.067 354.4C211.334 354.8 212.267 353.467 214.534 346.4C219.067 333.067 220.001 332.667 220.001 344.267C220.001 353.733 220.267 354.667 222.667 354.667C225.201 354.667 225.334 353.733 225.334 340V325.333H221.601C218.134 325.333 217.601 326.133 214.001 336C211.734 341.867 209.601 346.667 209.201 346.667C208.801 346.667 206.534 342 204.401 336.267C200.934 327.467 199.867 326 196.801 325.6L193.334 325.2V339.867Z" fill="#6A6A6A"/>
<path d="M234.667 335.333C237.867 341.467 240 347.333 240 350C240 353.733 240.533 354.667 242.667 354.667C244.933 354.667 245.333 353.733 245.333 349.333C245.333 345.867 246.933 340.667 250 334.667C254.667 325.333 254.667 325.333 251.6 325.333C249.2 325.333 247.867 326.8 245.467 331.6L242.4 338L239.2 331.6C236.667 326.667 235.2 325.333 232.667 325.333H229.467L234.667 335.333Z" fill="#6A6A6A"/>
<path d="M268 340C268 353.6 268.133 354.667 270.533 354.667C272.667 354.667 273.2 353.6 273.6 349.067C273.867 346 274.667 343.333 275.467 343.067C276.4 342.8 278.667 345.333 280.533 348.667C282.8 352.533 285.067 354.667 286.667 354.667C290.133 354.667 290 353.6 286.133 348L283.067 343.333L286.933 339.733C290.267 336.667 290.8 335.333 290.133 332.267C288.8 326.933 285.733 325.333 276.4 325.333H268V340ZM283.333 334C283.333 337.6 282.933 338 278.4 338.4C273.333 338.8 273.333 338.8 273.333 334C273.333 329.2 273.333 329.2 278.4 329.6C282.933 330 283.333 330.4 283.333 334Z" fill="#6A6A6A"/>
<path d="M294.934 337.467C295.334 348.267 295.734 349.867 298.534 352.133C300.267 353.6 303.601 354.667 306.534 354.667C315.601 354.533 318.667 349.733 318.667 335.467C318.667 326.267 318.401 325.333 316.001 325.333C313.601 325.333 313.334 326.267 313.334 334.8C313.334 346.267 311.867 349.333 306.667 349.333C301.467 349.333 300.001 346.267 300.001 334.8C300.001 326.133 299.734 325.333 297.201 325.333C294.534 325.333 294.401 325.867 294.934 337.467Z" fill="#6A6A6A"/>
<path d="M324 340C324 353.733 324.133 354.667 326.667 354.667C328.933 354.667 329.333 353.733 329.333 348.667C329.333 344.4 329.867 342.667 331.2 342.667C332.267 342.667 334.667 345.333 336.533 348.667C338.8 352.533 341.067 354.667 342.667 354.667C346 354.667 345.867 353.733 342.133 348L339.067 343.333L343.067 339.733C346.267 336.667 346.8 335.333 346.133 332.267C344.8 326.933 341.733 325.333 332.4 325.333H324V340ZM339.333 334C339.333 337.6 338.933 338 334.4 338.4C329.333 338.8 329.333 338.8 329.333 334C329.333 329.2 329.333 329.2 334.4 329.6C338.933 330 339.333 330.4 339.333 334Z" fill="#6A6A6A"/>
<path d="M384 326C384 326.4 385.6 333.067 387.467 340.8C390.933 354.4 391.2 354.8 394.533 354.4C397.733 354 398.267 352.933 400.8 343.467C402.267 337.6 403.867 333.333 404.267 334.133C404.667 334.8 406 339.733 407.333 344.933C409.467 354 409.867 354.667 413.2 354.667C416.667 354.667 416.933 354.133 419.867 341.6C421.6 334.533 423.333 327.867 423.6 326.933C424 326 423.067 325.333 421.067 325.333C418 325.333 417.6 326.133 416 334.933C415.067 340.267 414 345.2 413.6 346C413.2 346.667 411.467 342.533 410 336.667C407.467 327.2 406.8 326 403.733 325.6C400.533 325.2 400.133 325.733 398 334.933C396.667 340.267 395.333 345.2 394.8 346C394.4 346.667 393.2 342.533 392 336.667C390.267 327.467 389.6 326 386.933 325.6C385.333 325.333 384 325.467 384 326Z" fill="#6A6A6A"/>
<path d="M429.334 340V354.667H438.001C444.801 354.667 446.667 354.267 446.667 352.667C446.667 351.2 445.067 350.667 440.667 350.667C434.667 350.667 434.667 350.667 434.667 346C434.667 341.467 434.801 341.333 440.001 341.333C443.867 341.333 445.334 340.8 445.334 339.333C445.334 337.867 443.867 337.333 440.001 337.333C434.934 337.333 434.667 337.067 434.667 333.333C434.667 329.467 434.934 329.333 440.667 329.333C445.067 329.333 446.667 328.8 446.667 327.333C446.667 325.733 444.801 325.333 438.001 325.333H429.334V340Z" fill="#6A6A6A"/>
<path d="M461.334 340C461.334 353.733 461.467 354.667 464.001 354.667C466.267 354.667 466.667 353.733 466.667 348.667V342.667H471.734C478.801 342.667 481.867 340.133 481.867 334C481.867 327.333 478.801 325.333 469.067 325.333H461.334V340ZM475.334 334C475.334 337.6 474.801 338 471.067 338.4C466.801 338.8 466.667 338.667 466.667 334C466.667 329.333 466.801 329.2 471.067 329.6C474.801 330 475.334 330.4 475.334 334Z" fill="#6A6A6A"/>
<path d="M485.334 325.867C485.334 326.4 487.467 332.933 490.134 340.667C494.801 354 495.201 354.667 498.667 354.667C502.134 354.667 502.667 353.867 506.534 343.333C512.667 326.533 512.801 325.333 509.601 325.333C507.334 325.333 506.134 327.333 503.201 336.667C501.067 342.8 499.201 347.6 498.801 347.2C498.267 346.8 496.401 341.867 494.534 336.267C491.867 328.133 490.534 325.867 488.267 325.6C486.667 325.333 485.334 325.467 485.334 325.867Z" fill="#6A6A6A"/>
<path d="M596 340C596 353.6 596.133 354.667 598.533 354.667C600.667 354.667 601.2 353.6 601.6 348.933C602 343.467 602.133 343.333 607.333 342.933C614 342.4 617.333 339.467 617.333 334C617.333 327.6 613.867 325.333 604.267 325.333H596V340ZM610.8 331.467C613.333 334.533 610.667 337.867 605.467 338.4C601.467 338.8 601.333 338.667 601.333 334.133C601.333 329.733 601.6 329.333 605.2 329.333C607.333 329.333 609.733 330.267 610.8 331.467Z" fill="#6A6A6A"/>
<path d="M622.666 340V354.667H631.333C638.133 354.667 639.999 354.267 639.999 352.667C639.999 351.2 638.399 350.667 633.999 350.667C627.999 350.667 627.999 350.667 627.999 346C627.999 341.467 628.133 341.333 633.333 341.333C637.199 341.333 638.666 340.8 638.666 339.333C638.666 337.867 637.199 337.333 633.333 337.333C628.266 337.333 627.999 337.067 627.999 333.333C627.999 329.467 628.266 329.333 633.999 329.333C638.399 329.333 639.999 328.8 639.999 327.333C639.999 325.733 638.133 325.333 631.333 325.333H622.666V340Z" fill="#6A6A6A"/>
<path d="M685.334 340C685.334 353.6 685.467 354.667 687.867 354.667C690.001 354.667 690.534 353.6 690.934 348.933C691.334 343.467 691.467 343.333 696.667 342.933C703.467 342.4 706.667 339.467 706.667 333.867C706.667 327.2 703.867 325.333 693.867 325.333H685.334V340ZM700.667 334C700.667 337.6 700.267 338 695.734 338.4C690.934 338.8 690.667 338.667 690.667 334.933C690.667 330 691.601 329.067 696.667 329.6C700.134 330 700.667 330.533 700.667 334Z" fill="#6A6A6A"/>
<path d="M712 340C712 353.733 712.133 354.667 714.667 354.667C716.933 354.667 717.333 353.733 717.333 348.667V342.667H722.667C731.733 342.667 736.133 335.333 731.2 328.267C729.467 325.733 728 325.333 720.533 325.333H712V340ZM726.533 331.733C728.4 335.333 725.867 338.667 721.333 338.667C717.6 338.667 717.333 338.267 717.333 334C717.333 329.733 717.6 329.333 721.333 329.333C723.733 329.333 725.733 330.267 726.533 331.733Z" fill="#6A6A6A"/>
<path d="M558.666 339.333C558.666 340.933 560.799 341.333 569.999 341.333C579.199 341.333 581.333 340.933 581.333 339.333C581.333 337.733 579.199 337.333 569.999 337.333C560.799 337.333 558.666 337.733 558.666 339.333Z" fill="#6A6A6A"/>
<path d="M650.666 339.333C650.666 340.933 652.533 341.333 659.999 341.333C667.466 341.333 669.333 340.933 669.333 339.333C669.333 337.733 667.466 337.333 659.999 337.333C652.533 337.333 650.666 337.733 650.666 339.333Z" fill="#6A6A6A"/>
</svg>
