<svg width="596" height="533" viewBox="0 0 596 533" fill="none" xmlns="http://www.w3.org/2000/svg">
<path d="M475.807 101.981C455.94 109.976 451.172 132.717 466.072 147.286C475.608 156.88 487.528 159.723 499.647 155.636C519.116 148.885 527.063 131.829 518.321 116.017C515.739 111.397 511.169 106.067 508.189 104.113C501.435 99.6712 483.952 98.6052 475.807 101.981ZM504.216 107.844C515.341 114.062 519.513 128.098 513.553 139.113C508.587 147.997 501.236 151.905 489.117 151.905C479.184 151.905 477.992 151.372 470.443 144.266C462.695 136.804 462.496 136.093 463.291 126.854C464.085 119.215 465.476 116.017 469.847 111.93C479.383 103.047 493.091 101.448 504.216 107.844Z" fill="black"/>
<path d="M474.814 127.92C474.814 140.89 475.41 143.91 477.794 143.91C479.781 143.91 480.774 141.956 480.774 137.692C480.774 131.829 481.172 131.473 487.529 131.473C493.489 131.473 494.681 132.184 496.668 137.692C497.86 141.067 500.244 143.91 501.833 143.91C505.409 143.91 505.409 140.712 501.634 134.494C499.052 130.052 499.052 129.164 501.634 126.676C509.78 119.392 502.032 111.93 486.138 111.93H474.814V127.92ZM496.668 118.148C500.84 122.768 497.462 126.143 488.721 126.143C481.768 126.143 480.774 125.61 480.774 122.057C480.774 119.747 481.37 117.26 482.165 116.727C484.549 114.417 494.085 115.483 496.668 118.148Z" fill="black"/>
<path d="M277.141 115.661C253.897 117.26 239.791 119.747 216.547 126.499C148.206 146.22 99.7315 186.728 81.2555 239.85C74.5008 258.86 74.5008 291.906 81.2555 310.917C90.3941 337.389 106.685 360.486 129.333 379.141C200.853 438.304 320.847 451.451 413.823 410.232C453.159 392.643 487.926 363.684 504.614 334.013C514.945 315.714 518.918 302.033 519.911 279.647C521.302 252.642 517.726 237.185 505.21 214.799C487.529 182.819 458.921 157.768 419.783 139.824C377.07 120.28 328.794 111.93 277.141 115.661ZM357.998 127.742C425.942 141.778 482.165 180.509 502.627 227.591C524.481 278.226 509.183 331.171 460.907 372.034C363.759 453.938 180.787 440.969 109.863 347.338C98.5395 332.237 94.1688 323.886 89.0035 307.896C83.4408 290.13 83.0435 262.236 88.2088 245.358C106.883 184.063 175.026 136.448 261.247 124.544C281.114 121.702 338.131 123.656 357.998 127.742Z" fill="black"/>
<path d="M378.461 167.717C368.13 171.803 363.958 177.844 343.098 218.707C308.53 285.688 305.351 291.551 303.961 290.129C303.166 289.419 301.577 275.028 300.186 258.505C298.994 241.804 296.809 218.53 295.617 206.626C293.431 186.017 293.034 184.951 289.657 187.616C287.273 189.748 284.293 190.281 279.326 189.392C275.353 188.682 268.399 189.037 263.83 190.103C252.307 192.946 236.017 207.692 231.845 219.596C227.474 230.966 225.686 251.043 227.474 263.835L228.865 274.139L237.407 266.322L245.95 258.505L242.175 245.18C239.99 237.895 238.798 229.367 239.394 226.347C240.387 220.839 247.738 213.555 255.685 209.824C260.453 207.692 278.134 207.159 278.134 209.113C277.935 216.753 257.671 310.206 255.287 314.292C250.917 322.109 243.169 326.018 233.235 325.663C225.09 325.485 224.891 325.485 220.918 334.191L216.746 342.896H223.302C233.037 342.896 250.321 334.191 257.671 325.663C264.625 317.135 266.015 312.871 275.154 264.901C283.498 220.306 284.889 224.748 292.637 324.597C292.835 326.906 293.431 328.683 294.027 328.683C294.623 328.683 306.146 307.363 319.655 281.068C344.489 233.098 346.674 229.367 348.859 231.322C349.455 232.032 345.681 255.129 340.515 282.845C330.781 334.013 330.383 342.896 337.337 342.896C339.125 342.896 347.27 340.942 355.415 338.81C371.905 334.191 376.077 330.46 364.753 330.46C355.018 330.46 347.866 327.084 346.277 321.932C345.283 318.378 347.866 300.789 352.634 278.936C353.627 274.139 364.355 217.997 367.931 198.986C370.514 185.128 375.282 179.443 384.619 179.443C389.983 179.443 391.374 178.555 393.162 173.935C394.354 170.737 395.347 167.539 395.347 166.829C395.347 164.519 385.215 165.052 378.461 167.717Z" fill="black"/>
<path d="M434.286 188.149C430.908 191.347 425.942 193.657 420.776 194.368C403.095 196.855 386.407 208.226 378.063 223.505C373.295 232.388 372.5 235.942 371.904 255.307C371.308 267.389 371.904 277.16 372.699 277.16C373.692 277.16 377.467 274.673 381.043 271.83C387.202 266.678 387.4 266.145 387.4 251.576C387.4 231.855 392.367 219.241 403.691 210.713C411.042 205.028 421.968 200.941 424.352 203.073C426.736 205.205 412.631 294.749 407.267 311.272C404.684 319.445 396.142 328.684 391.374 328.684C388.195 328.684 377.467 338.988 377.467 342.009C377.467 342.719 391.572 342.897 408.856 342.542C438.656 342.009 440.444 341.831 449.384 337.212C468.854 326.907 478.787 310.917 478.787 289.775C478.787 272.719 474.615 266.5 459.318 259.927C458.92 259.927 461.9 255.84 466.072 251.043C476.403 239.14 479.383 231.855 479.383 218.353C479.582 210.002 478.588 205.205 476.204 201.83C471.238 195.256 461.304 190.104 453.358 190.104C448.391 190.104 446.404 189.215 445.61 186.55C444.219 181.576 440.842 182.109 434.286 188.149ZM453.358 200.764C459.318 204.85 464.88 214.622 464.88 220.84C464.88 228.48 457.132 248.378 451.768 253.886C446.802 259.394 436.074 262.769 432.895 259.927C431.306 258.505 437.663 206.449 440.047 199.342C441.239 196.144 447.795 196.677 453.358 200.764ZM450.974 270.587C470.642 279.292 463.887 317.135 440.643 327.973C434.484 330.816 415.81 331.349 411.24 328.684C408.658 327.262 408.658 326.374 411.836 322.11C420.776 309.851 427.134 295.105 428.326 284.267C429.12 277.871 430.511 271.653 431.703 270.409C434.087 267.566 444.616 267.744 450.974 270.587Z" fill="black"/>
<path d="M174.628 195.966C159.53 205.027 152.576 221.017 146.02 260.992C139.663 299.368 133.703 323.353 129.531 327.617C127.743 329.394 123.372 332.059 119.995 333.302C116.618 334.546 113.24 337.211 112.644 339.343C111.651 342.896 112.247 342.896 156.351 342.896H201.051L207.408 337.033C212.574 332.592 214.759 327.972 218.136 315.891C223.302 297.769 223.5 294.926 219.726 294.926C216.944 294.926 212.176 303.987 209.792 313.937C208.998 317.135 205.223 321.932 201.448 325.13L194.495 330.46H167.675C152.775 330.46 141.054 329.927 141.451 329.038C151.384 311.449 157.344 289.419 160.92 258.505C165.688 216.753 170.854 206.093 186.747 206.093C193.303 206.093 194.892 205.205 198.27 200.052C200.455 196.677 201.846 193.479 201.25 192.946C198.071 190.103 180.986 192.057 174.628 195.966Z" fill="black"/>
</svg>
