<svg width="800" height="533" viewBox="0 0 800 533" fill="none" xmlns="http://www.w3.org/2000/svg">
<path d="M451.116 165.83C429.271 174.181 419.007 192.554 421.639 219.834C423.744 240.434 435.324 262.147 448.221 269.107C453.485 272.169 458.485 273.839 459.275 273.282C459.801 272.447 459.538 267.436 458.485 261.869C456.906 254.074 454.011 250.456 447.168 246.558C434.535 239.321 425.323 220.391 427.429 205.916C430.587 184.76 445.589 170.841 465.591 170.841C485.067 170.841 500.069 183.924 503.754 204.524C506.122 217.608 498.753 235.98 488.225 243.775C476.908 252.126 473.487 256.858 473.487 266.044C473.487 273.282 474.013 273.56 480.593 270.777C496.384 264.653 505.859 247.95 509.017 222.061C512.176 197.286 502.438 177.243 482.962 167.779C470.855 161.933 462.696 161.655 451.116 165.83Z" fill="#283C77"/>
<path d="M452.432 193.389C432.167 202.297 427.956 220.948 442.958 235.702C447.695 240.713 453.485 246.002 455.854 247.951C458.222 249.899 460.854 258.25 461.644 266.88C462.697 275.231 464.539 282.747 465.592 283.582C466.645 284.139 468.75 276.345 470.592 266.045C473.487 249.899 475.067 246.559 482.173 241.826C486.91 238.764 492.7 231.527 495.332 225.681C500.07 215.938 500.07 214.824 496.122 208.422C487.173 193.946 466.645 186.987 452.432 193.389Z" fill="#D40C0C"/>
<path d="M84.7586 245.167C74.7574 247.115 65.5458 258.807 65.5458 269.107C65.5458 283.304 72.6519 290.263 93.4438 297.501C107.393 302.233 111.867 305.017 112.393 309.471C114.236 323.111 91.8647 323.389 87.9168 309.749C86.3377 304.738 84.7586 303.903 75.5469 305.295C62.3875 307.244 61.3347 308.357 64.493 317.544C68.1776 328.679 79.2316 335.916 95.2861 337.308C122.395 339.535 139.239 327.843 139.239 306.687C139.239 293.047 131.08 283.86 115.288 279.406C94.2334 273.839 90.5487 271.89 89.7591 267.436C89.2328 264.374 91.3383 262.147 96.0757 261.034C101.603 259.642 104.235 260.477 107.919 264.931C111.341 269.663 115.288 271.055 124.5 271.055C137.923 271.055 139.502 268.272 132.396 257.415C124.5 245.723 105.55 240.991 84.7586 245.167Z" fill="#283C77"/>
<path d="M147.135 257.137V268.272H160.294H173.454V301.677V335.082H187.403H201.089V302.512V269.664L215.038 268.829L228.723 267.994V256.859V246.002H187.929H147.135V257.137Z" fill="#283C77"/>
<path d="M239.778 290.542L223.986 335.082H237.935C250.568 335.082 251.884 334.525 253.464 328.122C255.043 321.72 256.359 321.163 270.571 321.163C284.783 321.163 286.099 321.72 287.678 328.122C289.257 334.246 290.573 335.082 302.417 335.082C309.786 335.082 315.576 334.246 315.576 333.133C315.576 332.298 308.733 312.255 300.574 288.593L285.309 246.002H270.571H255.832L239.778 290.542ZM275.835 287.201C277.677 293.882 278.466 300.007 277.94 300.842C277.151 301.398 273.203 301.677 268.992 301.12L261.096 300.285L265.044 285.531C269.255 269.107 271.097 269.386 275.835 287.201Z" fill="#283C77"/>
<path d="M323.473 291.934V337.865H350.581C365.32 337.865 381.901 337.03 387.428 336.195L397.166 334.246V318.101C397.166 308.914 398.218 301.677 399.534 301.677C400.587 301.677 416.115 312.255 434.012 325.338L466.121 349L496.125 326.73C512.706 314.482 527.971 303.625 530.076 302.79C533.234 301.398 534.024 304.182 534.024 319.492V337.865H570.87H607.717V291.934V246.002H561.922H516.127L514.285 254.91C509.547 278.572 489.545 296.109 466.911 296.109C443.75 296.109 422.958 279.964 417.694 257.972L415.062 246.002H369.268H323.473V291.934Z" fill="#283C77"/>
<path d="M623.504 290.542V335.082H659.034H694.565V325.338V315.595H672.194H649.823V307.244V299.171L670.352 298.336L690.617 297.501V289.15V280.799L670.352 279.964C650.612 279.129 649.823 278.85 649.823 272.448C649.823 266.045 650.612 265.767 671.668 264.932L693.249 264.096L694.039 254.91L694.828 246.002H659.298H623.504V290.542Z" fill="#283C77"/>
<path d="M710.359 290.542V335.082H723.519H736.678V290.542V246.002H723.519H710.359V290.542Z" fill="#283C77"/>
</svg>
