<svg width="800" height="534" viewBox="0 0 800 534" fill="none" xmlns="http://www.w3.org/2000/svg">
<path d="M198.667 121.867C150.534 132.533 105.601 168.667 82.2674 215.333C75.734 228.533 70.134 245.067 68.6674 255.333C68.134 258.933 67.4674 263.067 67.0674 264.267C66.534 266.533 69.2007 266.667 111.201 266.667H156.001L156.801 262.933C161.734 240.267 172.001 226 190.134 216.933C193.734 215.067 199.067 213.2 201.734 212.667L206.667 211.733V165.867C206.667 140.667 206.534 120 206.401 120.133C206.134 120.267 202.667 121.067 198.667 121.867Z" fill="#173583"/>
<path d="M217.334 158V182.666H221.201C230.934 182.666 246.534 186.933 258.401 192.666C268.001 197.466 272.934 201.066 280.401 208.4C285.734 213.733 291.467 220 293.334 222.4L296.667 226.8L322.934 226.4L349.201 226L344.934 216C325.334 171.066 282.401 139.733 233.201 134.666C225.734 134 219.201 133.333 218.534 133.333C217.867 133.333 217.334 144.4 217.334 158Z" fill="#173583"/>
<path d="M486.401 242.667C474.267 244.133 469.201 246 464.267 250.8C459.467 255.467 458.001 261.333 459.334 270.133C460.934 281.067 468.801 285.6 490.801 288.533C499.201 289.6 507.067 290.933 508.401 291.333C511.201 292.533 511.334 298.133 508.534 299.2C502.534 301.467 490.667 298.933 490.667 295.333C490.667 293.6 488.001 293.333 474.001 293.333C455.867 293.333 455.867 293.333 458.801 300.933C462.534 310.933 474.667 317.067 493.334 318.267C515.067 319.6 532.667 314.8 539.734 305.6C542.667 301.733 543.334 299.6 543.334 293.2C543.334 278.533 536.001 273.733 508.134 269.6C490.001 266.8 487.067 265.733 488.401 262.133C489.067 260.533 491.201 260 497.201 260C504.134 260 505.467 260.4 507.734 263.333C510.267 266.533 510.934 266.667 525.201 266.667H540.001V262.933C540.001 253.067 528.267 245.067 510.667 242.667C499.467 241.2 498.934 241.2 486.401 242.667Z" fill="#173583"/>
<path d="M296.001 244.667C283.334 248.267 274.401 256 270.801 266.533C270.001 269.067 269.334 275.6 269.334 281.2C269.334 292.133 272.134 300.533 277.734 306.4C285.334 314.533 303.734 319.6 320.667 318.267C338.267 316.667 349.201 310.933 355.467 299.6C358.934 293.333 359.334 291.467 359.334 280C359.334 268.933 358.934 266.533 356.001 261.333C352.401 254.8 343.067 247.733 334.934 245.2C326.534 242.667 304.267 242.4 296.001 244.667ZM326.001 266.8C329.734 270.4 330.001 271.333 330.001 280.667C330.001 289.6 329.601 290.933 326.534 294.133C324.134 296.533 321.067 297.867 316.801 298.267C304.534 299.733 298.134 293.467 298.134 279.867C298.001 274.933 298.801 271.333 300.401 268.8C305.867 260.533 318.667 259.467 326.001 266.8Z" fill="#173583"/>
<path d="M576.133 244.8C557.2 249.867 548.533 262 549.466 282.267C550.133 296 554.133 304.267 563.2 310.267C572.266 316.4 578.666 317.867 595.333 317.867C612.8 317.733 622.133 314.8 630.4 306.8C642.8 294.667 643.466 267.6 631.6 254.933C621.866 244.4 595.333 239.6 576.133 244.8ZM601.866 263.333C608.133 266.267 610.666 271.6 610.666 281.333C610.666 288.933 610.266 290 606.133 294.133C602.133 298.133 600.8 298.667 594.666 298.667C588.533 298.667 587.2 298.133 583.2 294.133C580 290.933 578.666 288.267 578.533 285.067C577.866 271.733 580 266.4 587.066 263.333C592.666 260.8 596.666 260.933 601.866 263.333Z" fill="#173583"/>
<path d="M176 280V316H188.667H201.2L201.6 296.267L202 276.667L215.2 296.267L228.4 316H243.6H258.667V280V244H245.333H232.133L231.733 262.933L231.333 282L219.6 262.933L207.733 244H191.867H176V280Z" fill="#173583"/>
<path d="M369.334 279.867V316H383.334H397.334V305.333V294.667H407.067C419.067 294.667 421.334 296.4 421.334 305.6C421.334 316.133 421.067 316 438.134 316C446.534 316 453.334 315.467 453.334 314.8C453.334 314.133 452.801 313.333 452.001 313.067C451.334 312.8 450.267 307.2 449.867 300.667C448.934 289.867 448.534 288.267 445.201 285.2C441.734 282 441.601 281.733 444.134 280.267C448.534 277.467 452.001 270.4 452.001 264.267C452.001 255.867 448.934 250.933 441.601 247.6C435.867 244.933 432.801 244.667 402.401 244.267L369.334 243.733V279.867ZM420.534 266.133C421.734 267.2 422.667 268.667 422.667 269.333C422.667 270 421.734 271.467 420.534 272.533C419.067 274.133 415.734 274.667 407.867 274.667H397.334V269.333V264H407.867C415.734 264 419.067 264.533 420.534 266.133Z" fill="#173583"/>
<path d="M649.334 280V316H662.667H676.001V296.267V276.667L689.067 296.267L702.001 316H717.734H733.334V280V244H720.001H706.801L706.401 263.6L706.001 283.333L693.867 264L681.867 244.667L665.601 244.267L649.334 243.867V280Z" fill="#173583"/>
<path d="M81.7336 288.267C83.2003 308.8 92.5336 334.533 104.934 352.8C124.8 382 155.2 402.267 191.2 410.267C203.867 413.067 233.467 413.067 246 410.267C277.467 403.2 304.4 387.067 324.4 363.333C331.467 354.933 342.667 337.867 342.667 335.6C342.667 335.067 329.734 334.667 313.867 334.667H285.067L278.4 340.667C251.2 365.2 212.267 370.667 179.334 354.667C152 341.467 133.734 316 130 285.6L129.067 278.667H105.067H80.9336L81.7336 288.267Z" fill="#173583"/>
</svg>
