<?xml version="1.0" encoding="utf-8"?>
<!-- Generator: Adobe Illustrator 24.0.3, SVG Export Plug-In . SVG Version: 6.00 Build 0)  -->
<svg version="1.1" id="PIPELIFE_Logo" xmlns="http://www.w3.org/2000/svg" xmlns:xlink="http://www.w3.org/1999/xlink" x="0px"
	 y="0px" viewBox="0 0 665 201.5" style="enable-background:new 0 0 665 201.5;" xml:space="preserve">
<style type="text/css">
	.st0{fill:#003087;}
	.st1{fill:#41B6E6;}
	.st2{fill:#FFFFFF;}
</style>
<path class="st0" d="M92.8,80.4h-10v17.5h10.8c6.4,0,10-3.6,10-8.5C103.6,83.8,100.1,80.4,92.8,80.4 M98.8,110.8l-15.9,0.5V134
	c0,0.2-0.1,0.3-0.3,0.3H67.5c-0.2,0-0.3-0.1-0.3-0.3V67.5c0-0.2,0.1-0.3,0.3-0.3h29.2c12.6,0,21.5,8.6,21.5,21.3
	C118.1,104.4,107.4,110.5,98.8,110.8 M129.9,134V67.5c0-0.2,0.1-0.3,0.3-0.3h15.2c0.2,0,0.3,0.1,0.3,0.3V134c0,0.2-0.1,0.3-0.3,0.3
	h-15.2C130,134.3,129.9,134.2,129.9,134 M188.7,80.4h-10v17.5h10.8c6.4,0,10-3.6,10-8.5C199.5,83.8,196,80.4,188.7,80.4
	 M194.7,110.8l-15.9,0.5V134c0,0.2-0.1,0.3-0.3,0.3h-15.2c-0.2,0-0.3-0.1-0.3-0.3V67.5c0-0.2,0.1-0.3,0.3-0.3h29.2
	c12.6,0,21.5,8.6,21.5,21.3C213.9,104.4,203.3,110.5,194.7,110.8 M273.8,120.2c0.2,0,0.3,0.1,0.3,0.3V134c0,0.2-0.1,0.3-0.3,0.3
	h-48.2c-0.2,0-0.3-0.1-0.3-0.3V67.5c0-0.2,0.1-0.3,0.3-0.3h46c0.2,0,0.3,0.1,0.3,0.3v13.4c0,0.2-0.1,0.3-0.3,0.3l-30.7,0.3v13
	l21.1,0.3c0.2,0,0.3,0.1,0.3,0.3v12.7c0,0.2-0.1,0.3-0.3,0.3l-21.1,0.2v12H273.8z M329.5,120c0.2,0,0.3,0.1,0.3,0.3V134
	c0,0.2-0.1,0.3-0.3,0.3h-42.3c-0.2,0-0.3-0.1-0.3-0.3V67.5c0-0.2,0.1-0.3,0.3-0.3h15.2c0.2,0,0.3,0.1,0.3,0.3v52.4L329.5,120z
	 M341.5,134V67.5c0-0.2,0.1-0.3,0.3-0.3H357c0.2,0,0.3,0.1,0.3,0.3V134c0,0.2-0.1,0.3-0.3,0.3h-15.2
	C341.6,134.3,341.5,134.2,341.5,134 M409.6,97c0.2,0,0.3,0.1,0.3,0.3v13.1c0,0.2-0.1,0.3-0.3,0.3l-19.2,0.2V134
	c0,0.2-0.1,0.3-0.3,0.3h-15.2c-0.2,0-0.3-0.1-0.3-0.3V67.5c0-0.2,0.1-0.3,0.3-0.3h46.4c0.2,0,0.3,0.1,0.3,0.3v13.5
	c0,0.2-0.1,0.3-0.3,0.3l-30.9,0.2v15.3L409.6,97z M481.7,120.2c0.2,0,0.3,0.1,0.3,0.3V134c0,0.2-0.1,0.3-0.3,0.3h-48.2
	c-0.2,0-0.3-0.1-0.3-0.3V67.5c0-0.2,0.1-0.3,0.3-0.3h46c0.2,0,0.3,0.1,0.3,0.3v13.4c0,0.2-0.1,0.3-0.3,0.3l-30.7,0.3v13l21.1,0.3
	c0.2,0,0.3,0.1,0.3,0.3v12.7c0,0.2-0.1,0.3-0.3,0.3l-21.1,0.2v12H481.7z M611.3,100.8c0,26-21.1,47.1-47.1,47.1
	s-47.1-21.1-47.1-47.1c0-26,21.1-47.1,47.1-47.1S611.3,74.7,611.3,100.8"/>
<path class="st1" d="M602.4,98c0-19.6-15.9-35.4-35.4-35.4S531.5,78.4,531.5,98c0,19.6,15.9,35.4,35.4,35.4S602.4,117.6,602.4,98"/>
<path class="st2" d="M591.2,89.7c0-8.8-7.1-15.9-15.9-15.9c-8.8,0-15.9,7.1-15.9,15.9c0,8.8,7.1,15.9,15.9,15.9
	C584,105.6,591.2,98.5,591.2,89.7"/>
</svg>
