<svg width="800" height="533" viewBox="0 0 800 533" fill="none" xmlns="http://www.w3.org/2000/svg">
<path d="M76.3333 160.565C52.6 171.781 35 199.41 35 225.124C35 241.811 43.2667 261.233 56.0667 274.364C79 297.889 54.2 296.248 400.333 296.248C739 296.248 719.533 297.342 741.133 278.193C778.467 245.367 769.667 182.176 724.6 160.565L711 154H400.333H89.6667L76.3333 160.565ZM130.2 171.234C163.533 189.015 172.867 232.51 149.4 261.507C125.4 291.324 79.2667 289.683 57.6667 258.224C47 242.631 44.8667 215.276 53.4 198.316C59.5333 185.732 73.1333 173.696 86.2 168.498C96.8667 164.395 119.533 165.763 130.2 171.234ZM223.8 200.504C229.667 206.249 231.8 222.935 227.533 229.501C224.6 234.425 214.733 238.802 207.267 238.802C201.133 238.802 200.333 239.896 200.333 248.376C200.333 257.13 199.8 257.95 192.333 257.95H184.333V226.492V195.033H201.133C214.467 195.033 219.267 196.127 223.8 200.504ZM262.2 218.832L263 242.905L271.8 243.726C278.733 244.546 280.333 245.64 280.333 251.385C280.333 257.677 279.533 257.95 263 257.95H245.667V226.492V195.033H253.667H261.4L262.2 218.832ZM343 222.935C348.6 238.528 353.667 252.753 354.467 254.394C355.267 256.856 352.6 257.95 346.2 257.95C339 257.95 336.333 256.583 335 252.479C332.6 244.82 317.133 244.82 312.067 252.753C309.133 256.856 305.933 258.224 299.8 257.403L291.267 256.583L300.6 231.963C315 193.118 313.933 195.033 323.8 195.033C332.6 195.033 332.867 195.307 343 222.935ZM407 197.769C407.8 199.41 407.8 202.966 407 205.975C405.667 210.078 403.267 211.173 397.133 210.626C384.867 209.805 385.667 214.729 398.467 221.021C408.6 225.945 409.667 227.586 410.467 237.707C411.267 247.282 410.2 250.017 404.067 254.941C395.533 261.78 384.333 262.327 373.4 256.583C365.933 252.479 365.933 252.206 369.933 245.64C373.4 240.169 375 239.622 380.333 242.084C387 245.093 395 243.452 395 239.075C395 237.707 390.733 234.972 385.667 233.331C367.8 227.312 363.533 215.823 373.933 202.145C378.467 196.127 381.4 195.033 392.333 195.033C399.533 195.033 406.2 196.401 407 197.769ZM466.467 202.419C465.933 207.89 464.067 210.352 459.8 210.899C453.933 211.72 453.667 213.088 453.667 234.972V257.95H444.333H435V234.698C435 213.361 434.467 211.446 429.667 211.446C425.4 211.446 424.333 209.531 424.333 203.24V195.033H445.933H467.267L466.467 202.419ZM499 226.492V257.95H489.667H480.333V226.492V195.033H489.667H499V226.492ZM547 210.352L553.133 225.671L559 211.173C564.067 198.042 565.667 196.401 573.133 195.58C577.933 195.033 581.667 195.033 581.933 195.58C581.933 196.127 584.067 210.352 586.733 227.039L591.533 257.95H582.733C574.2 257.95 573.933 257.677 572.067 242.084L570.2 226.492L563.533 242.084C555 262.327 549.667 262.874 543.267 244.273C538.2 229.774 533.667 228.407 533.667 241.537C533.667 254.121 531 257.95 522.733 257.95C513.667 257.95 513.933 259.045 519.267 226.765C524.867 193.939 524.333 195.033 533.4 195.033C540.333 195.033 541.667 196.674 547 210.352ZM643 203.24C643 210.899 642.2 211.446 633.667 211.446C627.267 211.446 624.333 212.814 624.333 215.55C624.333 218.285 627.267 219.653 633.667 219.653C641.667 219.653 643 220.474 643 226.218C643 231.963 641.4 233.057 634.467 233.878C628.867 234.425 625.667 236.066 625.667 238.802C625.667 241.537 628.867 243.178 634.467 243.726C641.4 244.546 643 245.64 643 251.385C643 257.677 642.2 257.95 625.667 257.95H608.333V226.492V195.033H625.667H643V203.24ZM682.733 202.419L686.2 210.078L691.533 202.419C695.8 196.401 699 195.033 707.533 195.033H718.2L708.6 208.711C703.267 216.37 699 223.483 699 224.577C699 225.945 703.8 233.878 709.667 242.358L720.067 257.95H709.667C700.6 257.95 698.2 256.583 693.133 248.65L687.267 239.349L680.867 248.65C675.8 256.583 673.4 257.95 664.333 257.95H653.667L665.667 240.99L677.4 224.303L668.333 211.446C663.267 204.334 659 197.769 659 196.674C659 195.854 663.533 195.033 669.133 195.033C677.933 195.033 680.067 196.127 682.733 202.419Z" fill="#D40A0A"/>
<path d="M200.334 215.55C200.334 220.474 201.667 222.389 205.401 222.389C212.867 222.389 215.267 216.644 209.667 212.267C202.467 207.07 200.334 207.89 200.334 215.55Z" fill="#D40A0A"/>
<path d="M322.201 224.303C319.001 227.586 320.334 233.331 324.334 233.331C328.867 233.331 329.401 230.869 326.201 225.671C324.867 223.756 323.267 223.209 322.201 224.303Z" fill="#D40A0A"/>
<path d="M61.792 329.36C61.792 328.08 61.12 327.44 59.776 327.44H57.6V335.888H59.776C61.12 335.888 61.792 335.237 61.792 333.936V329.36ZM53.728 324.08H60.192C61.92 324.08 63.2533 324.507 64.192 325.36C65.152 326.213 65.632 327.419 65.632 328.976V334.32C65.632 335.877 65.152 337.083 64.192 337.936C63.2533 338.789 61.92 339.216 60.192 339.216H57.6V346H53.728V324.08ZM76.3843 337.744V346H72.5442V324.08H79.0083C80.7363 324.08 82.0696 324.507 83.0083 325.36C83.9683 326.192 84.4483 327.387 84.4483 328.944V332.688C84.4483 335.163 83.5523 336.72 81.7603 337.36L85.2163 346H80.9923L77.9523 337.744H76.3843ZM76.3843 327.376V334.64H78.6243C79.3283 334.64 79.8296 334.491 80.1283 334.192C80.4483 333.872 80.6083 333.36 80.6083 332.656V329.232C80.6083 327.995 79.9469 327.376 78.6243 327.376H76.3843ZM100.086 329.424C100.086 327.973 99.286 327.248 97.686 327.248C96.1073 327.248 95.318 327.973 95.318 329.424V340.656C95.318 342.107 96.1073 342.832 97.686 342.832C99.286 342.832 100.086 342.107 100.086 340.656V329.424ZM91.478 329.232C91.478 327.568 92.0007 326.245 93.046 325.264C94.0913 324.261 95.638 323.76 97.686 323.76C99.734 323.76 101.281 324.261 102.326 325.264C103.393 326.245 103.926 327.568 103.926 329.232V340.848C103.926 342.512 103.393 343.845 102.326 344.848C101.281 345.829 99.734 346.32 97.686 346.32C95.638 346.32 94.0913 345.829 93.046 344.848C92.0007 343.845 91.478 342.512 91.478 340.848V329.232ZM119.688 329.104C119.688 327.888 119.027 327.28 117.704 327.28H115.048V342.672H117.704C119.027 342.672 119.688 341.989 119.688 340.624V329.104ZM111.208 324.08H118.184C119.891 324.08 121.203 324.507 122.12 325.36C123.059 326.192 123.528 327.397 123.528 328.976V340.912C123.528 344.304 121.811 346 118.376 346H111.208V324.08ZM139.189 324.08H143.029V340.848C143.029 342.512 142.506 343.845 141.461 344.848C140.415 345.829 138.869 346.32 136.821 346.32C134.794 346.32 133.258 345.829 132.213 344.848C131.189 343.845 130.677 342.512 130.677 340.848V324.08H134.517V340.656C134.517 342.107 135.295 342.832 136.853 342.832C138.41 342.832 139.189 342.107 139.189 340.656V324.08ZM150.177 329.008C150.177 327.408 150.721 326.16 151.809 325.264C152.918 324.368 154.582 323.92 156.801 323.92C158.251 323.92 159.553 324.08 160.705 324.4V327.92C159.425 327.557 158.198 327.376 157.025 327.376C155.873 327.376 155.083 327.547 154.657 327.888C154.251 328.208 154.049 328.688 154.049 329.328V340.752C154.049 342.053 154.977 342.704 156.833 342.704C158.39 342.704 159.713 342.533 160.801 342.192V345.68C159.649 346 158.294 346.16 156.737 346.16C152.363 346.16 150.177 344.475 150.177 341.104V329.008ZM167.625 324.08H178.153V327.44H171.465V333.232H177.257V336.592H171.465V342.64H178.153V346H167.625V324.08ZM194.349 324.08H198.157V346H194.285C191.149 338 189.357 333.349 188.909 332.048C188.461 330.725 188.216 330 188.173 329.872C188.173 329.915 188.226 330.309 188.333 331.056C188.61 332.997 188.749 335.397 188.749 338.256V346H184.973V324.08H188.909C191.618 330.928 193.186 334.96 193.613 336.176C194.04 337.392 194.349 338.331 194.541 338.992C194.754 339.632 194.882 340.005 194.925 340.112C194.925 340.027 194.872 339.621 194.765 338.896C194.488 336.763 194.349 334.341 194.349 331.632V324.08ZM216.254 324.08V327.44H212.19V346H208.318V327.44H204.254V324.08H216.254ZM231.492 328.944C231.492 327.344 232.026 326.107 233.092 325.232C234.159 324.357 235.684 323.92 237.668 323.92C239.674 323.92 241.231 324.123 242.34 324.528V328.208C241.103 327.717 239.642 327.472 237.956 327.472C236.271 327.472 235.428 328.112 235.428 329.392V330.256C235.428 330.896 235.546 331.397 235.78 331.76C236.015 332.101 236.474 332.453 237.156 332.816L240.836 334.896C242.564 335.835 243.428 337.264 243.428 339.184V341.072C243.428 342.693 242.842 343.952 241.668 344.848C240.495 345.723 238.82 346.16 236.644 346.16C234.468 346.16 232.836 345.925 231.748 345.456V341.744C233.114 342.32 234.66 342.608 236.388 342.608C238.5 342.608 239.556 341.947 239.556 340.624V339.792C239.556 339.237 239.439 338.811 239.204 338.512C238.991 338.192 238.586 337.872 237.988 337.552L234.468 335.632C232.484 334.544 231.492 332.976 231.492 330.928V328.944ZM257.57 346H253.698V338.96L248.418 324.08H252.354L253.826 328.368C254.615 330.779 255.234 332.955 255.682 334.896C256.215 332.741 256.834 330.555 257.538 328.336L258.978 324.08H262.85L257.57 338.96V346ZM267.781 328.944C267.781 327.344 268.314 326.107 269.381 325.232C270.448 324.357 271.973 323.92 273.957 323.92C275.962 323.92 277.52 324.123 278.629 324.528V328.208C277.392 327.717 275.93 327.472 274.245 327.472C272.56 327.472 271.717 328.112 271.717 329.392V330.256C271.717 330.896 271.834 331.397 272.069 331.76C272.304 332.101 272.762 332.453 273.445 332.816L277.125 334.896C278.853 335.835 279.717 337.264 279.717 339.184V341.072C279.717 342.693 279.13 343.952 277.957 344.848C276.784 345.723 275.109 346.16 272.933 346.16C270.757 346.16 269.125 345.925 268.037 345.456V341.744C269.402 342.32 270.949 342.608 272.677 342.608C274.789 342.608 275.845 341.947 275.845 340.624V339.792C275.845 339.237 275.728 338.811 275.493 338.512C275.28 338.192 274.874 337.872 274.277 337.552L270.757 335.632C268.773 334.544 267.781 332.976 267.781 330.928V328.944ZM296.867 324.08V327.44H292.803V346H288.931V327.44H284.867V324.08H296.867ZM302.968 324.08H313.496V327.44H306.808V333.232H312.6V336.592H306.808V342.64H313.496V346H302.968V324.08ZM337.179 324.08V346H333.467V336.912C333.467 334.757 333.617 332.592 333.915 330.416L330.331 340.336H327.131L323.515 330.416C323.835 332.4 323.995 334.565 323.995 336.912V346H320.315V324.08H324.411L328.731 336.24L333.051 324.08H337.179ZM353.076 329.424C353.076 327.973 352.276 327.248 350.676 327.248C349.097 327.248 348.308 327.973 348.308 329.424V340.656C348.308 342.107 349.097 342.832 350.676 342.832C352.276 342.832 353.076 342.107 353.076 340.656V329.424ZM344.468 329.232C344.468 327.568 344.991 326.245 346.036 325.264C347.081 324.261 348.628 323.76 350.676 323.76C352.724 323.76 354.271 324.261 355.316 325.264C356.383 326.245 356.916 327.568 356.916 329.232V340.848C356.916 342.512 356.383 343.845 355.316 344.848C354.271 345.829 352.724 346.32 350.676 346.32C348.628 346.32 347.081 345.829 346.036 344.848C344.991 343.845 344.468 342.512 344.468 340.848V329.232ZM351.124 319.216H354.132L351.924 322.8H349.78L351.124 319.216ZM377.894 324.08H381.286L378.118 346H374.406C373.233 338.597 372.582 334.395 372.454 333.392C372.347 332.368 372.23 331.216 372.102 329.936C371.931 332.304 371.686 334.491 371.366 336.496L369.83 346H365.926L362.822 324.08H366.246L367.686 333.456L368.326 339.44C368.667 336.496 369.361 331.376 370.406 324.08H373.798L375.11 333.456L375.814 339.28C375.985 337.104 376.198 335.163 376.454 333.456L377.894 324.08ZM401.483 337.744V346H397.643V324.08H404.107C405.835 324.08 407.168 324.507 408.107 325.36C409.067 326.192 409.547 327.387 409.547 328.944V332.688C409.547 335.163 408.651 336.72 406.859 337.36L410.315 346H406.091L403.051 337.744H401.483ZM401.483 327.376V334.64H403.723C404.427 334.64 404.928 334.491 405.227 334.192C405.547 333.872 405.707 333.36 405.707 332.656V329.232C405.707 327.995 405.046 327.376 403.723 327.376H401.483ZM425.249 324.08H429.089V340.848C429.089 342.512 428.566 343.845 427.521 344.848C426.475 345.829 424.929 346.32 422.881 346.32C420.854 346.32 419.318 345.829 418.273 344.848C417.249 343.845 416.737 342.512 416.737 340.848V324.08H420.577V340.656C420.577 342.107 421.355 342.832 422.913 342.832C424.47 342.832 425.249 342.107 425.249 340.656V324.08ZM440.397 337.744V346H436.557V324.08H443.021C444.749 324.08 446.082 324.507 447.021 325.36C447.981 326.192 448.461 327.387 448.461 328.944V332.688C448.461 335.163 447.565 336.72 445.773 337.36L449.229 346H445.005L441.965 337.744H440.397ZM440.397 327.376V334.64H442.637C443.341 334.64 443.842 334.491 444.141 334.192C444.461 333.872 444.621 333.36 444.621 332.656V329.232C444.621 327.995 443.959 327.376 442.637 327.376H440.397ZM463.874 329.36C463.874 328.08 463.202 327.44 461.858 327.44H459.682V335.888H461.858C463.202 335.888 463.874 335.237 463.874 333.936V329.36ZM455.81 324.08H462.274C464.002 324.08 465.336 324.507 466.274 325.36C467.234 326.213 467.714 327.419 467.714 328.976V334.32C467.714 335.877 467.234 337.083 466.274 337.936C465.336 338.789 464.002 339.216 462.274 339.216H459.682V346H455.81V324.08ZM488.323 324.08H491.715L488.547 346H484.835C483.661 338.597 483.011 334.395 482.883 333.392C482.776 332.368 482.659 331.216 482.531 329.936C482.36 332.304 482.115 334.491 481.795 336.496L480.259 346H476.355L473.251 324.08H476.675L478.115 333.456L478.755 339.44C479.096 336.496 479.789 331.376 480.835 324.08H484.227L485.539 333.456L486.243 339.28C486.413 337.104 486.627 335.163 486.883 333.456L488.323 324.08ZM505.431 346H501.559V338.96L496.279 324.08H500.215L501.687 328.368C502.476 330.779 503.095 332.955 503.543 334.896C504.076 332.741 504.695 330.555 505.399 328.336L506.839 324.08H510.711L505.431 338.96V346ZM516.314 329.008C516.314 327.408 516.858 326.16 517.946 325.264C519.056 324.368 520.72 323.92 522.938 323.92C524.389 323.92 525.69 324.08 526.842 324.4V327.92C525.562 327.557 524.336 327.376 523.162 327.376C522.01 327.376 521.221 327.547 520.794 327.888C520.389 328.208 520.186 328.688 520.186 329.328V340.752C520.186 342.053 521.114 342.704 522.97 342.704C524.528 342.704 525.85 342.533 526.938 342.192V345.68C525.786 346 524.432 346.16 522.874 346.16C518.501 346.16 516.314 344.475 516.314 341.104V329.008ZM542.979 324.08H546.883V346H542.979V336.944H537.635V346H533.763V324.08H537.635V333.52H542.979V324.08ZM563.782 324.08H575.142V327.216L567.654 342.736H575.174V346H563.622V342.736L570.982 327.344H563.782V324.08ZM600.061 329.36C600.061 328.08 599.389 327.44 598.045 327.44H595.869V335.888H598.045C599.389 335.888 600.061 335.237 600.061 333.936V329.36ZM591.997 324.08H598.461C600.189 324.08 601.522 324.507 602.461 325.36C603.421 326.213 603.901 327.419 603.901 328.976V334.32C603.901 335.877 603.421 337.083 602.461 337.936C601.522 338.789 600.189 339.216 598.461 339.216H595.869V346H591.997V324.08ZM619.549 324.08H623.549L619.165 346H613.789L609.341 324.08H613.277L615.133 333.936C615.325 335.024 615.581 336.677 615.901 338.896C616.242 341.115 616.445 342.341 616.509 342.576C616.594 342.171 616.797 340.837 617.117 338.576C617.437 336.315 617.661 334.779 617.789 333.968L619.549 324.08ZM629.372 329.008C629.372 327.408 629.916 326.16 631.004 325.264C632.113 324.368 633.777 323.92 635.996 323.92C637.446 323.92 638.748 324.08 639.9 324.4V327.92C638.62 327.557 637.393 327.376 636.22 327.376C635.068 327.376 634.278 327.547 633.852 327.888C633.446 328.208 633.244 328.688 633.244 329.328V340.752C633.244 342.053 634.172 342.704 636.028 342.704C637.585 342.704 638.908 342.533 639.996 342.192V345.68C638.844 346 637.489 346.16 635.932 346.16C631.558 346.16 629.372 344.475 629.372 341.104V329.008ZM665.013 329.36C665.013 328.08 664.341 327.44 662.997 327.44H660.821V335.888H662.997C664.341 335.888 665.013 335.237 665.013 333.936V329.36ZM656.949 324.08H663.413C665.141 324.08 666.475 324.507 667.413 325.36C668.373 326.213 668.853 327.419 668.853 328.976V334.32C668.853 335.877 668.373 337.083 667.413 337.936C666.475 338.789 665.141 339.216 663.413 339.216H660.821V346H656.949V324.08ZM683.829 329.36C683.829 328.08 683.157 327.44 681.813 327.44H679.637V335.888H681.813C683.157 335.888 683.829 335.237 683.829 333.936V329.36ZM675.765 324.08H682.229C683.957 324.08 685.291 324.507 686.229 325.36C687.189 326.213 687.669 327.419 687.669 328.976V334.32C687.669 335.877 687.189 337.083 686.229 337.936C685.291 338.789 683.957 339.216 682.229 339.216H679.637V346H675.765V324.08ZM712.774 329.36C712.774 328.08 712.102 327.44 710.758 327.44H708.582V335.888H710.758C712.102 335.888 712.774 335.237 712.774 333.936V329.36ZM704.71 324.08H711.174C712.902 324.08 714.236 324.507 715.174 325.36C716.134 326.213 716.614 327.419 716.614 328.976V334.32C716.614 335.877 716.134 337.083 715.174 337.936C714.236 338.789 712.902 339.216 711.174 339.216H708.582V346H704.71V324.08ZM723.527 324.08H734.055V327.44H727.367V333.232H733.159V336.592H727.367V342.64H734.055V346H723.527V324.08Z" fill="#D40A0A"/>
</svg>
