<svg width="800" height="534" viewBox="0 0 800 534" fill="none" xmlns="http://www.w3.org/2000/svg">
<path d="M133.914 202.507C131.905 203.245 130.049 204.476 128.65 206.045C128.04 206.752 123.718 212.413 119.09 218.628C112.276 227.703 110.445 229.98 109.708 230.287C108.665 230.687 106.631 232.072 105.385 233.21C104.953 233.61 104.47 233.948 104.317 233.948C104.114 233.948 104.038 230.411 104.038 222.566V211.183H88.0188H72L72.0509 246.162L72.1271 281.172L72.9916 284.249C75.2292 292.401 79.2974 299.847 84.2556 304.892C86.366 307.045 89.7732 309.691 91.2225 310.245L92.087 310.614V320.89V331.165H108.36H124.633L124.684 324.212L124.76 317.259L127.176 316.213C133.482 313.537 139.508 308.891 143.856 303.384C149.729 295.939 153.213 286.218 153.772 275.542L153.95 272.404H156.086H158.196V263.483V254.561H156.06H153.899L153.823 235.856L153.747 217.182L153.035 214.782C151.356 209.029 148.026 205.03 143.144 202.968C140.652 201.892 136.228 201.676 133.914 202.507ZM141.033 206.937C145.305 208.198 148.661 212.721 149.704 218.566C149.983 220.135 150.06 224.165 150.06 237.548V254.561H143.067C137.677 254.561 136.05 254.469 135.973 254.161C135.922 253.976 135.617 252.469 135.312 250.869C134.143 244.747 131.549 238.994 128.625 236.04C125.803 233.21 122.268 231.549 117.641 230.872C116.395 230.687 115.352 230.503 115.327 230.472C115.276 230.441 118.963 225.55 123.489 219.643C130.863 209.983 131.854 208.783 133.329 207.86C135.719 206.353 138.16 206.076 141.033 206.937ZM100.478 226.442V237.086L95.9264 244.685C93.4346 248.839 91.0954 252.961 90.7394 253.853C88.0188 260.375 88.2476 269.482 91.3242 276.342L92.087 278.065V292.002C92.087 299.662 92.0107 305.938 91.9345 305.938C91.8327 305.938 90.892 305.292 89.824 304.523C85.6795 301.446 82.7809 298.247 80.5179 294.124C78.8143 290.986 77.8227 288.433 76.5514 283.695L75.5597 280.065V247.946V215.797H88.0188H100.478V226.442ZM120.158 235.21C125.752 237.486 130.761 244.347 132.134 251.577C133.176 257.145 132.795 260.806 130.608 266.098C129.337 269.143 124.989 276.927 124.709 276.588C124.658 276.527 124.836 275.573 125.116 274.466C126.438 269.205 126.794 263.944 126.006 260.283C125.345 257.114 123.463 253.146 121.531 250.838C119.624 248.531 116.446 246.439 113.191 245.331C109.682 244.132 103.326 244.224 100.681 245.485C99.893 245.854 100.173 245.178 101.698 242.993C104.521 238.902 108.157 235.825 111.488 234.718C113.496 234.041 117.92 234.287 120.158 235.21ZM111.793 250.131C117.183 251.7 121.378 256.714 122.37 262.806C122.98 266.682 122.421 272.404 120.972 277.296C120.616 278.465 120.565 281.48 120.565 302.585V326.55H108.233H95.901V302.769V278.988L95.0111 276.465C91.7819 267.482 92.3413 259.822 96.5367 254.684C100.122 250.285 106.122 248.5 111.793 250.131ZM154.128 263.267V267.39L150.517 267.574C148.509 267.697 143.932 267.79 140.347 267.79H133.812L134.651 265.852C135.16 264.713 135.617 262.99 135.821 261.544L136.151 259.176H145.127H154.128V263.267ZM149.983 275.235C149.322 287.941 141.593 302.092 131.676 308.799C129.846 310.06 126.591 311.691 125.396 311.968L124.633 312.152V298.37V284.556L128.091 279.019C129.973 275.973 131.727 273.235 131.93 272.927C132.312 272.435 133.075 272.404 141.237 272.404H150.136L149.983 275.235Z" fill="#E16025"/>
<path d="M605.832 224.412C600.467 225.089 595.992 228.042 594.136 232.165C593.119 234.38 593.093 237.087 594.06 239.364C595.458 242.563 598.992 245.486 603.035 246.747C605.654 247.547 610.765 247.486 613.409 246.624C621.8 243.855 625.207 236.133 620.681 230.134C619.995 229.211 618.876 228.042 618.215 227.519C615.113 225.12 610.155 223.889 605.832 224.412Z" fill="#E16025"/>
<path d="M432.295 228.411C405.292 231.118 387.341 243.393 383.731 261.698C381.849 271.297 383.959 279.942 389.986 287.079C397.156 295.57 409.132 301.2 425.176 303.538C428.863 304.092 431.1 304.215 438.144 304.215C450.603 304.246 459.222 302.985 468.35 299.754C477.046 296.709 483.403 292.463 488.361 286.433C492.073 281.911 493.853 278.188 495.023 272.528C495.684 269.236 495.633 262.837 494.896 259.483C491.336 243.578 476.411 232.41 453.908 228.842C450.221 228.257 436.592 227.98 432.295 228.411ZM444.882 241.486C452.077 242.84 458.764 246.993 462.553 252.469C468.172 260.529 467.893 270.343 461.841 278.004C457.875 283.018 452.535 286.31 445.619 288.002C443.941 288.402 442.135 288.525 438.652 288.525C433.592 288.525 431.304 288.156 427.363 286.649C417.345 282.834 410.708 274.097 410.683 264.683C410.683 263.729 410.912 261.883 411.191 260.591C414.039 247.085 429.092 238.533 444.882 241.486Z" fill="#E16025"/>
<path d="M184.895 235.948V242.562H190.488H196.082L196.031 265.851L195.955 289.171L190.438 289.263L184.895 289.325V295.939V302.554H210.448H236.002V295.939V289.325H230.408H224.814V283.172V277.019H235.061C248.614 277.019 253.623 276.434 260.157 274.035C271.37 269.943 276.888 261.36 275.896 249.577C274.905 237.763 266.717 231.303 250.622 229.641C248.766 229.457 235.341 229.334 216.246 229.334H184.895V235.948ZM242.486 243.301C247.52 245.085 249.58 248.715 248.919 254.561C248.563 257.914 247.037 260.314 244.342 261.79C241.901 263.144 239.74 263.483 232.01 263.698L224.814 263.882V253.207V242.501L232.9 242.655C239.562 242.747 241.214 242.87 242.486 243.301Z" fill="#E16025"/>
<path d="M280.496 235.948V242.562H286.217H291.938V265.944V289.325H286.217H280.496V295.939V302.554H305.541H330.586V295.939V289.325H324.993H319.399V282.403V275.481H326.34H333.256L344.063 289.017L354.869 302.554H368.04H381.185V298.462C381.185 296.247 381.262 293.263 381.363 291.848L381.516 289.325H375.922H370.328L363.539 280.895L356.776 272.466L357.971 272.25C363.489 271.266 368.726 265.974 370.557 259.545C371.066 257.729 371.142 256.899 371.142 252.869C371.116 245.547 370.049 242.009 366.565 237.763C364.887 235.671 364.124 235.025 362.115 233.856C358.2 231.579 353.42 230.318 345.97 229.641C343.783 229.457 330.358 229.334 311.466 229.334H280.496V235.948ZM337.045 243.301C341.672 244.931 343.529 247.639 343.554 252.746C343.554 255.114 343.478 255.576 342.74 257.36C341.723 259.76 340.121 261.329 337.731 262.221C334.96 263.267 333.053 263.483 326.086 263.483H319.399V252.992V242.501L327.484 242.655C334.146 242.747 335.799 242.87 337.045 243.301Z" fill="#E16025"/>
<path d="M495.607 235.179V241.024H501.456H507.304V265.175V289.325H501.583H495.862V295.939V302.554H521.67H547.478V295.939V289.325H540.994H534.51V280.403V271.481H545.698H556.886V264.713V257.945H545.698H534.51V249.485V241.024H550.529H566.548V246.87V252.715H575.447H584.346V241.024V229.334H539.977H495.607V235.179Z" fill="#E16025"/>
<path d="M637.489 235.179V241.024H643.718H649.948V265.175V289.325H643.591H637.234V295.939V302.554H682.367H727.499V288.556V274.558H718.091H708.683V281.941V289.325H692.919H677.154V265.175V241.024H682.748H688.342V235.179V229.334H662.915H637.489V235.179Z" fill="#E16025"/>
<path d="M590.195 261.944V268.405H593.501H596.806V279.788V291.171H593.628H590.45V296.862V302.554H607.867H625.284V296.862V291.171H622.741H620.199V273.327V255.484H605.197H590.195V261.944Z" fill="#E16025"/>
</svg>
