<svg width="800" height="534" viewBox="0 0 800 534" fill="none" xmlns="http://www.w3.org/2000/svg">
<path d="M75.5623 180.683C73.1108 181.678 70.8455 183.335 69.1387 185.449C68.394 186.402 63.1186 194.028 57.4708 202.399C49.1543 214.625 46.92 217.692 46.0201 218.106C44.7478 218.645 42.2652 220.51 40.7447 222.044C40.2172 222.582 39.6275 223.038 39.4414 223.038C39.1931 223.038 39.1 218.272 39.1 207.704V192.37H19.55H0L0.0620635 239.491L0.155159 286.654L1.21024 290.799C3.94103 301.781 8.90611 311.81 14.9573 318.607C17.5329 321.508 21.6912 325.072 23.46 325.818L24.5151 326.316V340.158V354H44.3754H64.2357L64.2978 344.634L64.3909 335.267L67.3389 333.858C75.0348 330.253 82.3893 323.995 87.6957 316.576C94.8641 306.547 99.1154 293.451 99.7981 279.07L100.015 274.843H102.622H105.198V262.824V250.805H102.591H99.9533L99.8602 225.608L99.7671 200.451L98.8982 197.219C96.8501 189.469 92.7849 184.081 86.8268 181.305C83.7857 179.854 78.3862 179.564 75.5623 180.683ZM84.2512 186.651C89.4645 188.35 93.5607 194.442 94.833 202.316C95.1744 204.43 95.2675 209.859 95.2675 227.887V250.805H86.7337C80.155 250.805 78.169 250.681 78.0759 250.267C78.0138 250.018 77.6414 247.987 77.2691 245.832C75.8416 237.585 72.6764 229.835 69.1077 225.856C65.6632 222.044 61.3498 219.806 55.702 218.894C54.1814 218.645 52.9091 218.397 52.8781 218.355C52.816 218.314 57.3156 211.724 62.8393 203.767C71.8385 190.754 73.0487 189.137 74.8486 187.894C77.7656 185.863 80.7446 185.49 84.2512 186.651ZM34.7556 212.926V227.265L29.2009 237.502C26.1598 243.097 23.3048 248.65 22.8704 249.852C19.55 258.638 19.8293 270.906 23.5841 280.148L24.5151 282.468V301.242C24.5151 311.562 24.422 320.016 24.3289 320.016C24.2048 320.016 23.0566 319.146 21.7533 318.11C16.6951 313.965 13.1575 309.655 10.3956 304.102C8.31651 299.875 7.10627 296.435 5.55468 290.053L4.34445 285.162V241.895V198.587H19.55H34.7556V212.926ZM58.7741 224.737C65.6011 227.804 71.7144 237.046 73.3901 246.785C74.6624 254.287 74.1969 259.219 71.5282 266.347C69.9766 270.45 64.6702 280.935 64.3288 280.479C64.2668 280.396 64.484 279.111 64.8253 277.619C66.439 270.533 66.8734 263.446 65.9114 258.514C65.1046 254.245 62.8083 248.899 60.4499 245.791C58.1225 242.683 54.2435 239.864 50.2714 238.372C45.9891 236.756 38.2311 236.88 35.0038 238.58C34.0418 239.077 34.3832 238.165 36.2451 235.223C39.6896 229.711 44.1272 225.566 48.1923 224.074C50.6438 223.163 56.0433 223.494 58.7741 224.737ZM48.5647 244.838C55.1434 246.951 60.2637 253.707 61.4739 261.912C62.2187 267.134 61.536 274.843 59.7672 281.432C59.3327 283.007 59.2706 287.069 59.2706 315.499V347.783H44.2202H29.1698V315.748V283.712L28.0837 280.313C24.1427 268.212 24.8254 257.892 29.9456 250.971C34.3211 245.045 41.6446 242.641 48.5647 244.838ZM100.233 262.534V268.087L95.8261 268.336C93.3745 268.502 87.7888 268.626 83.4133 268.626H75.4382L76.4622 266.015C77.0829 264.482 77.6414 262.161 77.8897 260.213L78.2931 257.022H89.2473H100.233V262.534ZM95.1744 278.656C94.3676 295.772 84.9339 314.836 72.8315 323.871C70.5972 325.57 66.6252 327.766 65.1667 328.139L64.2357 328.388V309.821V291.213L68.456 283.753C70.7524 279.65 72.8936 275.962 73.1418 275.547C73.6073 274.884 74.5383 274.843 84.4995 274.843H95.3606L95.1744 278.656Z" fill="#E16025"/>
<path d="M651.513 210.191C644.965 211.103 639.503 215.081 637.238 220.635C635.997 223.619 635.966 227.266 637.145 230.333C638.852 234.643 643.165 238.58 648.099 240.279C651.295 241.357 657.533 241.274 660.76 240.113C671.001 236.383 675.159 225.981 669.635 217.9C668.797 216.656 667.432 215.081 666.625 214.377C662.839 211.144 656.788 209.487 651.513 210.191Z" fill="#E16025"/>
<path d="M439.72 215.579C406.765 219.226 384.856 235.762 380.45 260.42C378.153 273.351 380.729 284.997 388.084 294.611C396.834 306.05 411.45 313.634 431.031 316.784C435.531 317.53 438.262 317.696 446.858 317.696C462.063 317.737 472.583 316.038 483.723 311.686C494.336 307.583 502.094 301.864 508.145 293.741C512.676 287.649 514.848 282.634 516.276 275.009C517.082 270.574 517.02 261.954 516.121 257.437C511.776 236.01 493.56 220.966 466.097 216.159C461.598 215.371 444.965 214.998 439.72 215.579ZM455.081 233.192C463.863 235.016 472.024 240.61 476.648 247.987C483.506 258.846 483.165 272.066 475.779 282.386C470.938 289.141 464.422 293.575 455.981 295.855C453.933 296.394 451.73 296.559 447.478 296.559C441.303 296.559 438.51 296.062 433.7 294.031C421.474 288.892 413.374 277.122 413.343 264.441C413.343 263.156 413.623 260.669 413.964 258.929C417.44 240.735 435.81 229.213 455.081 233.192Z" fill="#E16025"/>
<path d="M137.781 225.732V234.642H144.608H151.435L151.373 266.015L151.28 297.429L144.546 297.553L137.781 297.636V306.547V315.457H168.968H200.155V306.547V297.636H193.328H186.501V289.348V281.059H199.007C215.547 281.059 221.66 280.271 229.635 277.039C243.32 271.527 250.054 259.964 248.844 244.091C247.634 228.177 237.641 219.474 217.998 217.236C215.733 216.987 199.348 216.821 176.043 216.821H137.781V225.732ZM208.068 235.637C214.212 238.04 216.726 242.931 215.919 250.805C215.485 255.322 213.623 258.555 210.333 260.544C207.354 262.368 204.717 262.824 195.283 263.114L186.501 263.362V248.982V234.559L196.369 234.766C204.5 234.891 206.517 235.056 208.068 235.637Z" fill="#E16025"/>
<path d="M254.457 225.732V234.642H261.439H268.421V266.139V297.636H261.439H254.457V306.547V315.457H285.023H315.59V306.547V297.636H308.763H301.936V288.311V278.987H310.407H318.848L332.036 297.222L345.225 315.457H361.299H377.343V309.945C377.343 306.961 377.436 302.941 377.56 301.035L377.746 297.636H370.919H364.092L355.807 286.281L347.552 274.925L349.011 274.635C355.745 273.309 362.137 266.181 364.371 257.519C364.992 255.074 365.085 253.955 365.085 248.526C365.054 238.662 363.751 233.896 359.499 228.177C357.451 225.359 356.52 224.488 354.069 222.913C349.29 219.847 343.456 218.147 334.364 217.236C331.695 216.987 315.31 216.821 292.254 216.821H254.457V225.732ZM323.472 235.637C329.119 237.833 331.385 241.48 331.416 248.36C331.416 251.551 331.323 252.173 330.423 254.576C329.181 257.809 327.226 259.923 324.309 261.124C320.927 262.534 318.6 262.824 310.097 262.824H301.936V248.691V234.559L311.804 234.766C319.934 234.891 321.951 235.056 323.472 235.637Z" fill="#E16025"/>
<path d="M516.988 224.696V232.57H524.126H531.263V265.103V297.636H524.281H517.299V306.547V315.457H548.796H580.293V306.547V297.636H572.38H564.467V285.618V273.599H578.121H591.775V264.481V255.364H578.121H564.467V243.967V232.57H584.017H603.567V240.444V248.318H614.428H625.289V232.57V216.821H571.139H516.988V224.696Z" fill="#E16025"/>
<path d="M690.148 224.696V232.57H697.751H705.354V265.103V297.636H697.596H689.838V306.547V315.457H744.919H800.001V296.6V277.743H788.519H777.037V287.69V297.636H757.797H738.558V265.103V232.57H745.385H752.212V224.696V216.821H721.18H690.148V224.696Z" fill="#E16025"/>
<path d="M632.428 260.751V269.455H636.462H640.496V284.789V300.123H636.617H632.738V307.79V315.457H653.995H675.252V307.79V300.123H672.148H669.045V276.086V252.048H650.736H632.428V260.751Z" fill="#E16025"/>
</svg>
