<svg width="800" height="533" viewBox="0 0 800 533" fill="none" xmlns="http://www.w3.org/2000/svg">
<path d="M551.058 387.91L546.959 392.57C549.802 395.825 551.19 398.761 551.19 402.91C551.19 408.846 548.149 413.505 542.001 415.867C549.074 418.229 551.124 422.761 551.124 426.718C551.124 435.782 541.869 440.314 532.681 440.314C521.509 440.314 514.172 434.76 514.502 425.505H521.707C521.509 430.612 526.93 433.548 532.681 433.548C537.969 433.548 543.654 431.377 543.654 426.718C543.654 422.058 539.225 419.505 532.813 419.505C521.641 419.505 514.105 413.314 514.105 402.91C514.105 391.74 523.492 386.187 532.813 386.187C535.655 386.187 539.754 386.889 542.134 388.485L545.901 384.017L551.058 387.91ZM521.311 402.846C521.311 409.484 526.467 413.059 532.747 413.059C539.159 413.059 543.918 408.846 543.918 402.846C543.918 396.272 538.696 392.57 532.747 392.57C526.864 392.633 521.311 395.889 521.311 402.846Z" fill="black"/>
<path d="M499.626 402.337C499.626 396.593 496.255 392.635 490.306 392.635C484.489 392.635 480.655 397.295 480.655 402.784V420.209H473.449V386.827H479.994L480.39 391.678C483.695 388.04 487.529 386.188 492.024 386.188C500.354 386.188 506.832 391.869 506.832 402.273V420.145H499.56V402.337H499.626Z" fill="black"/>
<path d="M460.101 372.846C462.348 372.846 464.596 374.187 464.596 377.123C464.596 380.059 462.348 381.463 460.101 381.463C457.853 381.463 455.605 380.059 455.605 377.123C455.605 374.187 457.853 372.846 460.101 372.846ZM463.67 420.143H456.465V386.697H463.67V420.143Z" fill="black"/>
<path d="M439.134 386.955H449.182V392.955H439.068V408.848C439.068 412.359 440.654 414.337 444.025 414.337C445.414 414.337 447.066 413.954 448.454 413.189L450.57 419.125C447.926 420.21 445.81 420.593 443.1 420.593C435.895 420.593 431.928 416.571 431.928 408.848V392.955H425.252V386.955H431.928V378.019L439.2 377.253V386.955H439.134Z" fill="black"/>
<path d="M410.655 386.955H420.703V392.955H410.589V408.848C410.589 412.359 412.175 414.337 415.547 414.337C416.935 414.337 418.587 413.954 419.976 413.189L422.091 419.125C419.447 420.21 417.331 420.593 414.621 420.593C407.416 420.593 403.45 416.571 403.45 408.848V392.955H396.707V386.955H403.384V378.019L410.655 377.253V386.955Z" fill="black"/>
<path d="M386.186 372.846C388.434 372.846 390.682 374.187 390.682 377.123C390.682 380.059 388.434 381.463 386.186 381.463C383.939 381.463 381.691 380.059 381.691 377.123C381.691 374.187 383.939 372.846 386.186 372.846ZM389.756 420.143H382.551V386.697H389.756V420.143Z" fill="black"/>
<path d="M340.312 372.974H374.951V380.314H348.179V394.675H373.629V401.697H348.179V420.143H340.312V372.974Z" fill="black"/>
<path d="M311.095 397.356C311.095 402.846 309.509 408.271 306.27 412.611L312.153 418.228L306.666 423.59L300.651 417.909C296.817 420.526 291.991 421.867 286.108 421.867C268.855 421.867 260.988 409.867 260.988 397.356C260.988 384.91 269.119 372.846 286.108 372.846C303.361 372.846 311.095 384.974 311.095 397.356ZM268.789 397.484C268.921 406.101 274.606 414.845 286.108 414.845C297.742 414.845 303.295 405.973 303.295 397.293C303.295 388.74 298.337 379.74 286.108 379.74C274.407 379.74 268.656 388.548 268.789 397.484Z" fill="black"/>
<path d="M214.715 379.676V372.846H254.708V379.676H238.711V420.143H230.778V379.676H214.715Z" fill="black"/>
<path d="M302.567 331.868C290.602 331.868 280.818 322.421 280.818 310.868C280.818 299.315 290.602 289.869 302.567 289.869C314.531 289.869 324.315 299.315 324.315 310.868C324.315 322.485 314.531 331.868 302.567 331.868ZM302.567 292.869C292.254 292.869 283.925 300.975 283.925 310.868C283.925 320.826 292.32 328.868 302.567 328.868C312.813 328.868 321.208 320.762 321.208 310.868C321.208 300.975 312.813 292.869 302.567 292.869Z" fill="black"/>
<path d="M307.27 320.188L301.387 313.742H297.289V320.188H294.182V301.55H303.172C307.667 301.55 309.981 304.486 309.981 307.678C309.981 310.295 308.526 312.976 304.758 313.486L310.509 319.678L310.84 320.188H307.27ZM297.289 311.061H303.172C305.684 311.061 306.874 309.529 306.874 307.742C306.874 306.082 305.75 304.295 303.238 304.295H297.355V311.061H297.289Z" fill="black"/>
<path d="M657.612 213.326C657.612 146.338 602.87 92 535.32 92C467.77 92 413.027 146.287 413.027 213.274C413.027 280.262 467.77 334.549 535.32 334.549C559.231 334.549 581.593 327.738 600.443 315.958L619.189 334.549L657.612 296.446L638.865 277.855C650.744 259.162 657.612 237.038 657.612 213.326ZM467.357 213.326C467.357 176.093 497.775 145.928 535.32 145.928C572.865 145.928 603.283 176.093 603.283 213.326C603.283 250.558 572.865 280.723 535.32 280.723C497.775 280.723 467.357 250.507 467.357 213.326Z" fill="black"/>
<path d="M142 92V145.917H210.48V334.549H265.222V145.917H333.702V92H142Z" fill="black"/>
</svg>
