<?xml version="1.0" encoding="utf-8"?>
<!-- Generator: Adobe Illustrator 24.0.1, SVG Export Plug-In . SVG Version: 6.00 Build 0)  -->
<svg version="1.1" id="Warstwa_1" xmlns="http://www.w3.org/2000/svg" xmlns:xlink="http://www.w3.org/1999/xlink" x="0px" y="0px"
	 viewBox="0 0 100 69" style="enable-background:new 0 0 100 69;" xml:space="preserve">
<g id="PANTONE_Process_Black_C">
	<path d="M63.15,60.59l-0.62,0.73c0.43,0.51,0.64,0.97,0.64,1.62c0,0.93-0.46,1.66-1.39,2.03c1.07,0.37,1.38,1.08,1.38,1.7
		c0,1.42-1.4,2.13-2.79,2.13c-1.69,0-2.8-0.87-2.75-2.32h1.09c-0.03,0.8,0.79,1.26,1.66,1.26c0.8,0,1.66-0.34,1.66-1.07
		c0-0.73-0.67-1.13-1.64-1.13c-1.69,0-2.83-0.97-2.83-2.6c0-1.75,1.42-2.62,2.83-2.62c0.43,0,1.05,0.11,1.41,0.36l0.57-0.7
		L63.15,60.59z M58.65,62.93c0,1.04,0.78,1.6,1.73,1.6c0.97,0,1.69-0.66,1.69-1.6c0-1.03-0.79-1.61-1.69-1.61
		C59.49,61.33,58.65,61.84,58.65,62.93z"/>
	<path d="M55.37,62.85c0-0.9-0.51-1.52-1.41-1.52c-0.88,0-1.46,0.73-1.46,1.59v2.73h-1.09v-5.23h0.99l0.06,0.76
		c0.5-0.57,1.08-0.86,1.76-0.86c1.26,0,2.24,0.89,2.24,2.52v2.8h-1.1V62.85z"/>
	<path d="M49.39,58.23c0.34,0,0.68,0.21,0.68,0.67c0,0.46-0.34,0.68-0.68,0.68s-0.68-0.22-0.68-0.68
		C48.71,58.44,49.05,58.23,49.39,58.23z M49.93,65.64h-1.09v-5.24h1.09V65.64z"/>
	<path d="M46.22,60.44h1.52v0.94h-1.53v2.49c0,0.55,0.24,0.86,0.75,0.86c0.21,0,0.46-0.06,0.67-0.18l0.32,0.93
		c-0.4,0.17-0.72,0.23-1.13,0.23c-1.09,0-1.69-0.63-1.69-1.84v-2.49h-1.01v-0.94h1.01v-1.4l1.1-0.12V60.44z"/>
	<path d="M41.91,60.44h1.52v0.94H41.9v2.49c0,0.55,0.24,0.86,0.75,0.86c0.21,0,0.46-0.06,0.67-0.18l0.32,0.93
		c-0.4,0.17-0.72,0.23-1.13,0.23c-1.09,0-1.69-0.63-1.69-1.84v-2.49H39.8v-0.94h1.01v-1.4l1.1-0.12V60.44z"/>
	<path d="M38.21,58.23c0.34,0,0.68,0.21,0.68,0.67c0,0.46-0.34,0.68-0.68,0.68c-0.34,0-0.68-0.22-0.68-0.68
		C37.53,58.44,37.87,58.23,38.21,58.23z M38.75,65.64h-1.09v-5.24h1.09V65.64z"/>
	<path d="M31.27,58.25h5.24v1.15h-4.05v2.25h3.85v1.1h-3.85v2.89h-1.19V58.25z"/>
	<path d="M27.22,61.94c0,0.86-0.24,1.71-0.73,2.39l0.89,0.88l-0.83,0.84l-0.91-0.89c-0.58,0.41-1.31,0.62-2.2,0.62
		c-2.61,0-3.8-1.88-3.8-3.84c0-1.95,1.23-3.84,3.8-3.84C26.05,58.1,27.22,60,27.22,61.94z M20.82,61.96
		c0.02,1.35,0.88,2.72,2.62,2.72c1.76,0,2.6-1.39,2.6-2.75c0-1.34-0.75-2.75-2.6-2.75C21.67,59.18,20.8,60.56,20.82,61.96z"/>
	<path d="M13.16,59.3v-1.07h6.05v1.07h-2.42v6.34h-1.2V59.3H13.16z"/>
	<path d="M32.24,47.57c-1.81,0-3.29-1.48-3.29-3.29c0-1.81,1.48-3.29,3.29-3.29c1.81,0,3.29,1.48,3.29,3.29
		C35.53,46.1,34.05,47.57,32.24,47.57z M32.24,41.46c-1.56,0-2.82,1.27-2.82,2.82c0,1.56,1.27,2.82,2.82,2.82s2.82-1.27,2.82-2.82
		C35.06,42.73,33.79,41.46,32.24,41.46z"/>
	<path d="M32.95,45.74l-0.89-1.01h-0.62v1.01h-0.47v-2.92l1.36,0c0.68,0,1.03,0.46,1.03,0.96c0,0.41-0.22,0.83-0.79,0.91l0.87,0.97
		l0.05,0.08H32.95z M31.44,44.31h0.89c0.38,0,0.56-0.24,0.56-0.52c0-0.26-0.17-0.54-0.55-0.54h-0.89V44.31z"/>
	<path d="M100,23.89C100,10.81,89.4,0.2,76.32,0.2s-23.68,10.6-23.68,23.68c0,13.08,10.6,23.68,23.68,23.68
		c4.63,0,8.96-1.33,12.61-3.63l3.63,3.63l7.44-7.44l-3.63-3.63C98.67,32.84,100,28.52,100,23.89z M63.16,23.89
		c0-7.27,5.89-13.16,13.16-13.16c7.27,0,13.16,5.89,13.16,13.16s-5.89,13.16-13.16,13.16C69.05,37.05,63.16,31.15,63.16,23.89z"/>
	<polygon points="0,0.2 0,10.73 13.16,10.73 13.16,47.57 23.68,47.57 23.68,10.73 36.84,10.73 36.84,0.2 	"/>
</g>
</svg>
