<svg width="800" height="533" viewBox="0 0 800 533" fill="none" xmlns="http://www.w3.org/2000/svg">
<path d="M42 144.958C42 146.494 57.7338 178.756 76.9333 216.548C123.066 306.88 150.8 361.879 158.8 378.163C162.267 385.537 165.467 391.068 166 390.453C171.067 382.772 290 146.802 290 144.344C290 143.115 234.265 142.5 166 142.5C95.6018 142.5 42 143.422 42 144.958ZM280.667 152.025C281.733 153.868 168.133 373.862 165.733 374.783L199.535 311.862L222.497 267.628L254 211.128L280.667 152.025Z" fill="#FFE600"/>
<path d="M41 144.457C41 145.993 56.7333 178.254 75.9333 216.047C122.067 306.379 149.8 361.377 157.8 377.662C161.267 385.036 164.467 390.566 165 389.952C170.067 382.271 289 146.3 289 143.842C289 142.613 233.267 141.999 165 141.999C94.6 141.999 41 142.92 41 144.457ZM279.667 151.523C280.733 153.367 167.133 373.36 164.733 374.282C163.4 374.589 145.8 342.328 125.533 302.077C105.267 262.135 79.9333 212.052 69 190.852C58.3333 169.651 49.8 151.831 50.3333 150.909C51.1333 149.373 278.6 149.987 279.667 151.523Z" fill="#173583"/>
<path d="M73 168.423C73.2667 177.333 78.6 179.484 102.067 178.87C115.4 178.562 127.4 179.177 128.733 180.099C130.067 181.02 126.6 191.16 120.733 202.221C115.133 213.589 110.333 226.187 110.333 229.874C110.333 236.633 111.4 236.94 130.6 236.94C148.2 236.94 150.6 236.326 149.8 231.41C149.267 227.723 146.067 225.879 138.867 225.265C133.533 224.65 129 223.114 129 221.578C129 220.349 133.8 209.595 139.667 197.612C155.933 165.043 157 166.272 111.667 166.272C90.3333 166.272 73 167.194 73 168.423Z" fill="#173583"/>
<path d="M179.399 167.501C178.866 168.116 178.599 184.093 179.133 202.835C179.933 233.868 180.466 236.94 184.999 236.94C188.999 236.94 190.066 234.175 190.866 222.192L191.666 207.751L198.333 221.578C202.599 230.488 207.133 235.711 210.866 236.326C216.466 237.248 216.733 236.326 217.533 208.673L218.333 180.406L231.133 181.328C243.666 182.249 254.333 176.412 254.333 168.73C254.333 167.194 243.133 166.579 229.799 166.887L204.999 167.808L205.266 177.641C205.799 190.545 202.866 190.545 195.666 177.026C190.599 167.808 183.133 163.2 179.399 167.501Z" fill="#173583"/>
<path d="M158.334 183.171C158.334 185.629 160.734 187.78 163.667 187.78C166.601 187.78 169.001 185.629 169.001 183.171C169.001 180.713 166.601 178.562 163.667 178.562C160.734 178.562 158.334 180.713 158.334 183.171Z" fill="#173583"/>
<path d="M158.334 216.969C158.334 234.79 158.867 236.94 163.667 236.94C168.467 236.94 169.001 234.79 169.001 216.969C169.001 199.148 168.467 196.998 163.667 196.998C158.867 196.998 158.334 199.148 158.334 216.969Z" fill="#173583"/>
<path d="M116.201 248.616C119.668 258.141 162.601 341.407 164.201 341.407C165.801 341.407 210.068 258.448 213.801 248.616C214.334 247.08 192.468 246.158 165.001 246.158C137.534 246.158 115.668 247.387 116.201 248.616ZM171.134 265.208C176.734 271.66 174.601 274.426 166.334 272.275C161.268 271.046 158.334 271.353 158.334 273.504C158.334 275.347 160.468 276.884 163.134 276.884C169.268 277.191 177.001 284.258 177.001 289.788C177.001 300.849 159.668 306.073 153.001 296.855C148.201 290.403 152.201 287.023 158.868 291.939C162.601 294.397 165.268 294.704 166.868 292.861C168.734 290.71 166.601 287.945 159.934 284.872C146.068 278.113 147.934 261.521 162.334 261.521C165.534 261.521 169.268 263.057 171.134 265.208Z" fill="#173583"/>
<path d="M286.333 247.694C286.333 254.761 287.133 255.375 299.666 255.375C307.133 255.375 312.999 256.297 312.999 257.219C312.999 258.14 306.333 267.665 298.333 278.419C290.333 288.866 283.666 300.541 283.666 304.228C283.666 310.373 284.733 310.681 310.333 310.681C335.133 310.681 336.999 310.373 336.999 304.536C336.999 299.005 335.133 298.391 322.333 298.391C314.333 298.391 307.666 297.162 307.666 295.933C307.666 294.396 314.333 284.871 322.333 274.732C332.199 262.135 336.999 253.224 336.999 248.001V240.012H311.666C286.333 240.012 286.333 240.012 286.333 247.694Z" fill="#173583"/>
<path d="M350.334 244.315C350.334 246.465 353.267 249.231 357.001 249.845C364.734 251.689 366.601 250.152 364.467 244.315C362.601 238.784 350.334 238.784 350.334 244.315Z" fill="#173583"/>
<path d="M379.666 275.347V310.681H387.666H395.666V292.245C395.666 282.106 396.733 273.81 398.066 273.81C399.133 273.81 404.733 282.106 410.066 292.245C419.133 309.144 420.733 310.681 429.266 310.681H438.599L437.799 275.961L436.999 241.549L429.799 240.627C422.333 239.705 422.333 239.705 422.333 258.14C422.333 268.587 421.266 276.883 420.199 276.883C419.133 276.883 412.999 268.587 406.866 258.448C397.266 243.085 394.333 240.012 387.666 240.012H379.666V275.347Z" fill="#173583"/>
<path d="M451.666 275.039V310.681H460.999C469.799 310.681 470.333 310.066 470.333 300.234C470.333 290.402 470.866 289.787 482.333 288.251C498.066 286.408 504.999 279.034 504.999 264.593C504.999 247.386 498.866 242.778 473.266 240.934L451.666 239.091V275.039ZM488.466 265.207C489.266 273.196 488.733 273.81 479.933 273.81C471.133 273.81 470.333 273.196 470.333 264.285C470.333 255.682 470.866 255.068 479.133 255.99C486.333 256.604 487.933 258.448 488.466 265.207Z" fill="#173583"/>
<path d="M518.334 275.347V310.681H541.001C561.801 310.681 563.667 310.066 563.667 304.843C563.667 299.62 561.534 298.698 549.801 297.776L535.667 296.854L534.867 268.28L534.067 240.012H526.334H518.334V275.347Z" fill="#173583"/>
<path d="M591.666 243.7C591.133 245.851 586.333 261.521 580.999 278.42C575.933 295.319 571.666 309.452 571.666 309.76C571.666 313.139 588.199 309.76 589.266 306.072C590.333 303 594.599 301.464 602.599 301.464C611.133 301.464 614.333 302.693 614.333 306.072C614.333 309.452 617.266 310.681 623.933 310.681C630.599 310.681 633.266 309.452 632.199 306.687C631.666 304.843 626.599 288.866 620.999 271.353C610.866 240.013 610.866 240.013 601.799 240.013C596.999 240.013 592.199 241.857 591.666 243.7ZM608.999 283.643C608.999 287.637 606.866 289.174 602.066 289.174C595.399 289.174 595.133 288.559 596.999 277.805C598.066 271.353 599.666 264.901 600.466 263.057C602.333 259.677 608.733 275.654 608.999 283.643Z" fill="#173583"/>
<path d="M649.534 244.93C645.534 248.002 643.667 252.611 643.667 259.985C643.667 271.968 649.001 279.035 659.134 281.8C671.667 284.873 678.334 288.867 678.334 293.783C678.334 297.163 675.667 298.392 669.001 298.392C663.934 298.392 659.667 296.856 659.667 295.319C659.667 293.476 655.401 292.247 650.334 292.247C639.134 292.247 638.601 294.705 647.934 304.844C653.267 310.375 657.801 312.218 667.401 312.218C684.734 312.218 694.334 304.537 694.334 290.711C694.334 281.8 692.734 278.728 686.067 274.119C681.534 270.739 673.534 267.359 668.734 266.13C663.134 265.209 659.667 262.443 659.667 259.678C659.667 253.226 667.134 250.768 674.067 255.069C677.534 257.22 683.401 258.449 687.667 257.834L695.134 256.913L687.667 248.31C681.801 241.55 677.801 240.014 667.934 240.014C661.001 240.014 653.001 242.165 649.534 244.93Z" fill="#173583"/>
<path d="M705 249.537C705 255.375 706.067 258.14 707.933 256.911C709.267 255.682 713.533 255.682 717.267 256.604C723.4 258.448 723.667 259.677 723.667 284.564V310.681H731.667H739.4L740.2 283.642L741 256.911H749.8C757.267 256.911 758.333 255.99 758.333 248.616V240.012H731.667H705V249.537Z" fill="#173583"/>
<path d="M350.334 286.1C350.334 310.373 350.334 310.681 357.001 310.681C363.667 310.681 363.667 310.373 363.667 286.1C363.667 261.827 363.667 261.52 357.001 261.52C350.334 261.52 350.334 261.827 350.334 286.1Z" fill="#173583"/>
</svg>
